<svg xmlns="http://www.w3.org/2000/svg" style="display: none;"><symbol id="icon-Animals" viewBox="0 0 60 60"><g class="nc-icon-wrapper"><clipPath id="a"><circle cx="30" cy="30.03" r="27"/></clipPath><circle cx="30" cy="30.03" fill="#00b964" r="27"/><circle cx="30" cy="30.03" fill="#00b964" r="27"/><g fill="#78dda3"><path d="M30 14.75a.56.56 0 0 1-.56-.56v-3.25a.56.56 0 0 1 1.12 0v3.25a.56.56 0 0 1-.56.56z"/><path d="M30 8.45a.57.57 0 0 1-.56-.57V.56a.56.56 0 0 1 1.12 0v7.32a.57.57 0 0 1-.56.57z"/><path d="M41.77 21.65a.55.55 0 0 1-.38-.15.57.57 0 0 1 0-.8L51.78 9.46a.57.57 0 0 1 .8 0 .56.56 0 0 1 0 .79l-10.4 11.21a.56.56 0 0 1-.41.19z"/><path d="M18.23 21.63a.55.55 0 0 1-.41-.18L7.42 10.22a.55.55 0 0 1 0-.79.56.56 0 0 1 .79 0l10.4 11.22a.57.57 0 0 1 0 .8.58.58 0 0 1-.38.18z"/><g clip-path="url(#a)"><path d="M39 14.75a.51.51 0 0 1-.17 0 .56.56 0 0 1-.37-.7l2.7-8.53a.56.56 0 0 1 .7-.37.57.57 0 0 1 .37.71l-2.69 8.53a.57.57 0 0 1-.54.36z"/><path d="M21.07 14.75a.55.55 0 0 1-.53-.39l-2.69-8.53a.56.56 0 1 1 1.07-.34L21.61 14a.56.56 0 0 1-.37.7.47.47 0 0 1-.17.05z"/></g><path d="M23 52.41a.55.55 0 0 1-.4-.16l-1.72-1.73a.57.57 0 0 1 0-.8L22.56 48a.59.59 0 0 1 .8 0l1.72 1.72a.57.57 0 0 1 0 .8l-1.72 1.73a.57.57 0 0 1-.36.16zm-1-2.29l.93.93.93-.93-.86-.93z"/><path d="M53.32 31.39h-1.51v-1.51a.56.56 0 0 0-1.12 0v1.51h-1.51a.56.56 0 0 0 0 1.12h1.51V34a.56.56 0 0 0 1.12 0v-1.49h1.51a.56.56 0 1 0 0-1.12z"/><circle cx="7.98" cy="29.41" r=".83"/><circle cx="49.18" cy="21.08" r=".83"/><circle cx="31.31" cy="48.67" r=".83"/><circle cx="16.06" cy="44.51" r=".83"/><path d="M9.62 23.87a2.21 2.21 0 1 1 2.21-2.21 2.21 2.21 0 0 1-2.21 2.21zm0-3.29a1.09 1.09 0 1 0 1.08 1.08 1.08 1.08 0 0 0-1.08-1.08z"/></g><g fill="#fff"><circle cx="41.6" cy="27.95" r="3.87"/><circle cx="34.9" cy="19.69" r="3.87"/><circle cx="18.4" cy="27.95" r="3.87"/><circle cx="25.1" cy="19.69" r="3.87"/><path d="M37.36 33.48c-1.86-1.48-1.85-3.48-2.2-4.8 0-.18-.11-.37-.18-.56a5.38 5.38 0 0 0-4.13-3.37 6.15 6.15 0 0 0-.85-.05 6.15 6.15 0 0 0-.85.05A5.38 5.38 0 0 0 25 28.12c-.07.19-.13.38-.18.56-.35 1.32-.34 3.35-2.2 4.8a5.66 5.66 0 0 0-2.36 5.27 5.35 5.35 0 0 0 4.6 4.49 5.27 5.27 0 0 0 3.39-.7 3.37 3.37 0 0 1 1.75-.48 3.37 3.37 0 0 1 1.73.48 5.27 5.27 0 0 0 3.39.7 5.35 5.35 0 0 0 4.6-4.49 5.66 5.66 0 0 0-2.36-5.27z"/></g><path d="M35.79 40.42a.55.55 0 0 1-.46-.24.56.56 0 0 1 .13-.78 1.8 1.8 0 0 0 .74-1.16 1.89 1.89 0 0 0-.68-1.63l-.24-.23a.56.56 0 1 1 .72-.86c.11.09.21.19.31.29a3 3 0 0 1 1 2.59 2.93 2.93 0 0 1-1.2 1.92.55.55 0 0 1-.32.1z" fill="#78dda3"/><path d="M34.26 35.19a.57.57 0 0 1-.43-.2 7.37 7.37 0 0 1-.5-.68.56.56 0 1 1 .94-.62 5.79 5.79 0 0 0 .43.58.58.58 0 0 1-.08.8.6.6 0 0 1-.36.12z" fill="#78dda3"/><path d="M17.48 35.28a3.83 3.83 0 0 0-2.75 1.17 5.41 5.41 0 0 0-4.14-2 5.63 5.63 0 0 0-1.48.21 5.4 5.4 0 0 0-3.18 2.49.56.56 0 0 0 0 .56 5.42 5.42 0 0 0 3.18 2.48 5.17 5.17 0 0 0 1.47.21 5.43 5.43 0 0 0 4.14-1.94 3.87 3.87 0 0 0 2.75 1.17.57.57 0 0 0 .57-.57v-3.22a.57.57 0 0 0-.56-.56zM7.06 37.49a4.27 4.27 0 0 1 1.69-1.44v2.87a4.33 4.33 0 0 1-1.69-1.43zm3.53 1.86a4.17 4.17 0 0 1-.71-.07v-3.59a4.17 4.17 0 0 1 .71-.07 4.29 4.29 0 0 1 3.49 1.82v.1a4.31 4.31 0 0 1-3.49 1.81zm6.33-.84a2.69 2.69 0 0 1-1.58-1v-.07a2.74 2.74 0 0 1 1.58-1z" fill="#78dda3"/><g clip-path="url(#a)" fill="#78dda3"><path d="M51 50.49h-5.41a.46.46 0 0 0 0-.2l-.76-2.14A4.39 4.39 0 0 0 48.51 44v-2.09H50a.57.57 0 0 0 .36-1l-2.47-2a2.37 2.37 0 0 0-3.9.43l-5.82 9a.57.57 0 0 0 .17.78.55.55 0 0 0 .3.09.54.54 0 0 0 .47-.26l.51-.78h2.06l.81 2.28H37.7a.56.56 0 0 0 0 1.12H51a.56.56 0 0 0 0-1.12zm-4.91-11.27a1.28 1.28 0 0 1 1.29 1.29v2.21c-.75 1.06-1.59 2.05-2.86 2.05h-2.7l3-4.7V40a1.29 1.29 0 0 1 1.27-.78zm-5 6.68h3.44a3.76 3.76 0 0 0 2.75-1.26 3.23 3.23 0 0 1-3.1 2.45h-3.86zm2.5 4.39l-.75-2.08h.78l.82 2.28h-.82a.69.69 0 0 0-.03-.2z"/><circle cx="46.17" cy="40.84" r=".5"/></g></g></symbol><symbol id="icon-Business" viewBox="0 0 60 60"><g class="nc-icon-wrapper"><defs><clipPath id="clip-path"><rect class="cls-1" x="14.69" y="19.61" width="30.61" height="20.83" rx="1" ry="1" fill="none"/></clipPath><clipPath id="clip-path-2"><circle class="cls-1" cx="30" cy="30.03" r="27" fill="none"/></clipPath></defs><title>Business</title><circle class="cls-2" cx="30" cy="30.03" r="27" fill="#00b964"/><path class="cls-3" d="M36.45 20.56a.56.56 0 0 1-.56-.56v-1.79a2.16 2.16 0 0 0-2.16-2.15h-7.46a2.16 2.16 0 0 0-2.16 2.15V20A.56.56 0 0 1 23 20v-1.79a3.28 3.28 0 0 1 3.28-3.27h7.46A3.28 3.28 0 0 1 37 18.21V20a.56.56 0 0 1-.55.56z" fill="#78dda3"/><rect class="cls-4" x="14.69" y="19.61" width="30.61" height="20.83" rx="1" ry="1" fill="#fff"/><path class="cls-3" d="M12.44 27.73a.43.43 0 0 1-.19 0l-5.5-2a.56.56 0 1 1 .38-1l5.5 2a.56.56 0 0 1-.19 1.09z" fill="#78dda3"/><path class="cls-3" d="M6.94 35.42a.56.56 0 0 1-.19-1.09l5.5-2a.55.55 0 0 1 .72.34.56.56 0 0 1-.34.72l-5.5 2a.58.58 0 0 1-.19.03z" fill="#78dda3"/><path class="cls-3" d="M6.12 30.48H1.27a.56.56 0 0 1-.56-.56.57.57 0 0 1 .56-.57h4.85a.57.57 0 0 1 .57.57.56.56 0 0 1-.57.56z" fill="#78dda3"/><path class="cls-3" d="M12.44 30.48H8.58a.56.56 0 0 1-.58-.56.57.57 0 0 1 .56-.57h3.86a.57.57 0 0 1 .56.57.56.56 0 0 1-.54.56z" fill="#78dda3"/><path class="cls-3" d="M36.9 12.29a2.21 2.21 0 1 1 2.2-2.21 2.21 2.21 0 0 1-2.2 2.21zm0-3.29a1.08 1.08 0 1 0 1.1 1.08A1.08 1.08 0 0 0 36.9 9z" fill="#78dda3"/><path class="cls-3" d="M17.33 12.58l1.07-1.06a.57.57 0 0 0-.8-.8l-1.06 1.07-1.07-1.07a.57.57 0 0 0-.8 0 .59.59 0 0 0 0 .8l1.07 1.06-1.07 1.07a.57.57 0 0 0 .4 1 .56.56 0 0 0 .4-.17l1.07-1.06 1.06 1.06a.56.56 0 0 0 .8 0 .56.56 0 0 0 0-.79z" fill="#78dda3"/><path class="cls-3" d="M38.54 44a4.14 4.14 0 1 0 4.14 4.13A4.13 4.13 0 0 0 38.54 44zm3 3.57H39.1v-2.44a3 3 0 0 1 2.39 2.39zm-3 3.57a3 3 0 0 1-.56-6v2.95a.57.57 0 0 0 .56.57h3a3 3 0 0 1-3 2.43z" fill="#78dda3"/><circle class="cls-3" cx="25.17" cy="9.91" r=".83" fill="#78dda3"/><circle class="cls-3" cx="45.75" cy="15.37" r=".83" fill="#78dda3"/><circle class="cls-3" cx="10.53" cy="18.58" r=".83" fill="#78dda3"/><circle class="cls-3" cx="47.07" cy="47.53" r=".83" fill="#78dda3"/><circle class="cls-3" cx="13" cy="44.68" r=".83" fill="#78dda3"/><g class="cls-5" clip-path="url(#clip-path)"><path class="cls-3" d="M19.92 41.41a.58.58 0 0 1-.57-.57V19.22a.57.57 0 0 1 .57-.56.56.56 0 0 1 .56.56v21.62a.57.57 0 0 1-.56.57z" fill="#78dda3"/><path class="cls-3" d="M40.08 41.41a.57.57 0 0 1-.56-.57V19.22a.56.56 0 0 1 .56-.56.57.57 0 0 1 .57.56v21.62a.58.58 0 0 1-.57.57z" fill="#78dda3"/></g><g class="cls-6" clip-path="url(#clip-path-2)"><path class="cls-3" d="M54.75 41.57H5.25a.56.56 0 0 1-.56-.57.57.57 0 0 1 .56-.57h49.5a.57.57 0 0 1 .56.57.56.56 0 0 1-.56.57z" fill="#78dda3"/><path class="cls-3" d="M30.16 43.86h-4.55a.56.56 0 0 0-.56.56v1.65h-4a.56.56 0 0 0-.56.56v1.65h-4a.56.56 0 0 0-.56.56v9.87a.56.56 0 0 0 .56.56h13.67a.56.56 0 0 0 .56-.56V44.42a.56.56 0 0 0-.56-.56zm-5.11 3.33v11h-3.4v-9.3a.51.51 0 0 0 0-.17v-1.53zM17.1 49.4h3.4v8.74h-3.4zm12.5 8.74h-3.43V45h3.43z" fill="#78dda3"/></g><path class="cls-3" d="M47.56 27.73a.56.56 0 0 1-.19-1.09l5.5-2a.56.56 0 1 1 .38 1l-5.5 2a.43.43 0 0 1-.19.09z" fill="#78dda3"/><path class="cls-3" d="M53.06 35.42a.58.58 0 0 1-.19 0l-5.5-2a.56.56 0 0 1-.37-.72.55.55 0 0 1 .72-.34l5.5 2a.56.56 0 0 1-.19 1.09z" fill="#78dda3"/><path class="cls-3" d="M58.73 30.48h-4.85a.56.56 0 0 1-.57-.56.57.57 0 0 1 .57-.57h4.85a.57.57 0 0 1 .56.57.56.56 0 0 1-.56.56z" fill="#78dda3"/><path class="cls-3" d="M51.42 30.48h-3.86a.56.56 0 0 1-.56-.56.57.57 0 0 1 .56-.57h3.86a.57.57 0 0 1 .56.57.56.56 0 0 1-.56.56z" fill="#78dda3"/></g></symbol><symbol id="icon-Charity" viewBox="0 0 60 60"><g class="nc-icon-wrapper"><defs><clipPath id="clip-path"><circle class="cls-1" cx="30" cy="30.03" r="27" fill="none"/></clipPath></defs><title>Charity</title><circle class="cls-2" cx="30" cy="30.03" r="27" fill="#00b964"/><path class="cls-3" d="M50.71 38.67a2.21 2.21 0 1 1 2.21-2.21 2.22 2.22 0 0 1-2.21 2.21zm0-3.29a1.08 1.08 0 1 0 1.08 1.08 1.08 1.08 0 0 0-1.08-1.08z" fill="#78dda3"/><path class="cls-3" d="M28.64 12.06a2.21 2.21 0 1 1 2.21-2.21 2.21 2.21 0 0 1-2.21 2.21zm0-3.29a1.08 1.08 0 1 0 1.09 1.08 1.08 1.08 0 0 0-1.09-1.08z" fill="#78dda3"/><path class="cls-3" d="M51.26 25.52h-1.51V24a.57.57 0 0 0-.56-.57.58.58 0 0 0-.57.57v1.5h-1.5a.58.58 0 0 0-.57.57.57.57 0 0 0 .57.56h1.5v1.51a.57.57 0 0 0 .57.56.56.56 0 0 0 .56-.56v-1.49h1.51a.56.56 0 0 0 .56-.56.57.57 0 0 0-.56-.57z" fill="#78dda3"/><path class="cls-3" d="M11.24 35.54H9.73V34a.56.56 0 1 0-1.12 0v1.51H7.1a.56.56 0 1 0 0 1.12h1.51v1.51a.56.56 0 1 0 1.12 0v-1.48h1.51a.56.56 0 0 0 0-1.12z" fill="#78dda3"/><circle class="cls-3" cx="33.25" cy="7.47" r=".83" fill="#78dda3"/><circle class="cls-3" cx="29.83" cy="42.73" r=".83" fill="#78dda3"/><circle class="cls-3" cx="7.93" cy="29.19" r=".83" fill="#78dda3"/><circle class="cls-3" cx="47.12" cy="18.47" r=".83" fill="#78dda3"/><path class="cls-4" d="M40.87 20.38a6.14 6.14 0 0 0-6.15-6.14A4.79 4.79 0 0 0 30 17.47c-1.26-2.34-2.82-3.23-4.72-3.23a6.14 6.14 0 0 0-6.15 6.14v.47c0 3.26 3.66 8.79 10.52 13a.68.68 0 0 0 .7 0c6.86-4.23 10.52-9.76 10.52-13 .01-.15 0-.31 0-.47z" fill="#fff"/><path class="cls-3" d="M21.45 20.94a.56.56 0 0 1-.56-.56A4.39 4.39 0 0 1 25.28 16a.56.56 0 0 1 0 1.12A3.26 3.26 0 0 0 22 20.38a.57.57 0 0 1-.55.56z" fill="#78dda3"/><path class="cls-4" d="M19.81 50.61a1.41 1.41 0 0 1-1-.43l-3.15-3.28a1.37 1.37 0 0 1-.38-1 1.34 1.34 0 0 1 .46-1l1.12-1a.56.56 0 0 0 .15-.61l-3-8.2a2.57 2.57 0 0 1 0-1.91l2.71-6.33a1.68 1.68 0 0 1 1.56-1 1.73 1.73 0 0 1 1.69 2.08c-.52 2.13-1.35 5.7-1.36 6.32a4.53 4.53 0 0 0 1.76 3.33 1.29 1.29 0 0 0 .37.06c.84 0 1.46-1.15 1.46-2.73v-1a1.7 1.7 0 0 1 1.7-1.7 1.68 1.68 0 0 1 1.69 1.66v8.85a6.41 6.41 0 0 1-1.89 4.56l-3 3a1.42 1.42 0 0 1-.89.33z" fill="#fff"/><path class="cls-2" d="M18.38 26.37a1.16 1.16 0 0 1 1.14 1.4s-1.36 5.52-1.38 6.43c0 1.49 1.27 3.61 2.17 3.88a2.07 2.07 0 0 0 .53.08c1.25 0 2-1.46 2-3.29v-1A1.13 1.13 0 0 1 24 32.74a1.1 1.1 0 0 1 1.1 1.1v8.84a5.86 5.86 0 0 1-1.73 4.16l-3 3a.83.83 0 0 1-1.18 0l-3.15-3.28a.82.82 0 0 1 0-1.19l1.12-1a1.11 1.11 0 0 0 .31-1.22l-2.95-8.2a2 2 0 0 1 0-1.5l2.7-6.33a1.14 1.14 0 0 1 1.05-.69m0-1.12a2.25 2.25 0 0 0-2.08 1.37L13.6 33a3.15 3.15 0 0 0-.07 2.32l3 8.2-1.12 1a1.93 1.93 0 0 0-.1 2.8l3.15 3.28a2 2 0 0 0 2.78 0l3-3a7 7 0 0 0 2.06-5v-8.76a2.26 2.26 0 0 0-3.85-1.57 2.24 2.24 0 0 0-.67 1.6v1c0 1.3-.46 2.17-.89 2.17a.79.79 0 0 1-.2 0 4.27 4.27 0 0 1-1.37-2.77c0-.51.71-3.61 1.34-6.19a2.29 2.29 0 0 0-.46-1.95 2.25 2.25 0 0 0-1.77-.84z" fill="#00b964"/><path class="cls-4" d="M40.19 50.61a1.42 1.42 0 0 1-1-.4l-3-3a6.41 6.41 0 0 1-1.89-4.56v-8.82a1.67 1.67 0 0 1 1.7-1.66 1.71 1.71 0 0 1 1.73 1.7v1c0 1.58.62 2.73 1.46 2.73a1.29 1.29 0 0 0 .37-.06 4.53 4.53 0 0 0 1.76-3.33c0-.62-.84-4.19-1.36-6.3a1.73 1.73 0 0 1 1.69-2.1 1.68 1.68 0 0 1 1.56 1l2.71 6.33a2.57 2.57 0 0 1 0 1.91L43 43.28a.56.56 0 0 0 .15.61l1.12 1a1.34 1.34 0 0 1 .46 1 1.37 1.37 0 0 1-.38 1l-3.15 3.28a1.41 1.41 0 0 1-1.01.44z" fill="#fff"/><path class="cls-2" d="M41.62 26.37a1.14 1.14 0 0 1 1.05.69l2.7 6.33a2 2 0 0 1 0 1.5l-2.95 8.2a1.11 1.11 0 0 0 .31 1.22l1.12 1a.82.82 0 0 1 0 1.19l-3.15 3.28a.83.83 0 0 1-1.18 0l-3-3a5.86 5.86 0 0 1-1.73-4.16v-8.78a1.1 1.1 0 0 1 1.1-1.1 1.13 1.13 0 0 1 1.14 1.13v1c0 1.83.77 3.29 2 3.29a2.07 2.07 0 0 0 .53-.08c.9-.27 2.2-2.39 2.17-3.88 0-.91-1.38-6.43-1.38-6.43a1.16 1.16 0 0 1 1.14-1.4m0-1.12a2.25 2.25 0 0 0-1.77.84 2.27 2.27 0 0 0-.34 1.91c.64 2.62 1.34 5.72 1.35 6.23A4.25 4.25 0 0 1 39.34 37h-.18c-.43 0-.89-.87-.89-2.17v-1a2.24 2.24 0 0 0-.67-1.6 2.25 2.25 0 0 0-3.85 1.57v8.84a7 7 0 0 0 2 5l3 3a2 2 0 0 0 2.78 0l3.15-3.28a1.93 1.93 0 0 0-.1-2.8l-1.12-1 2.95-8.21A3.15 3.15 0 0 0 46.4 33l-2.7-6.33a2.25 2.25 0 0 0-2.08-1.37z" fill="#00b964"/><path class="cls-3" d="M30.88 52.49a.58.58 0 0 1-.4-.16l-1.73-1.73a.57.57 0 0 1-.16-.39.58.58 0 0 1 .16-.4l1.73-1.73a.56.56 0 0 1 .79 0L33 49.81a.56.56 0 0 1 0 .79l-1.73 1.73a.57.57 0 0 1-.39.16zm-.94-2.28l.94.93.93-.93-.93-.94z" fill="#78dda3"/><path class="cls-3" d="M10.49 23.69a.56.56 0 0 1-.4-.17L8.37 21.8a.57.57 0 0 1 0-.8l1.72-1.72a.55.55 0 0 1 .8 0L12.62 21a.58.58 0 0 1 0 .8l-1.73 1.72a.56.56 0 0 1-.4.17zm-.93-2.29l.93.93.93-.93-.93-.93z" fill="#78dda3"/><path class="cls-3" d="M17.28 9.65a.56.56 0 0 1-.45-.23l-2.94-3.91a.56.56 0 0 1 .11-.79.57.57 0 0 1 .79.11l2.94 3.92a.56.56 0 0 1-.11.79.6.6 0 0 1-.34.11z" fill="#78dda3"/><path class="cls-3" d="M20.83 14.36a.55.55 0 0 1-.45-.22l-1.73-2.3a.56.56 0 0 1 .11-.79.57.57 0 0 1 .79.12l1.73 2.29a.56.56 0 0 1-.11.79.53.53 0 0 1-.34.11z" fill="#78dda3"/><path class="cls-3" d="M42.72 9.65a.6.6 0 0 1-.34-.11.56.56 0 0 1-.11-.79l2.94-3.92a.57.57 0 0 1 .79-.11.56.56 0 0 1 .11.79l-2.94 3.91a.56.56 0 0 1-.45.23z" fill="#78dda3"/><path class="cls-3" d="M39.17 14.36a.53.53 0 0 1-.34-.11.56.56 0 0 1-.11-.79l1.73-2.29a.57.57 0 0 1 .79-.12.56.56 0 0 1 .11.79l-1.73 2.3a.55.55 0 0 1-.45.22z" fill="#78dda3"/><g class="cls-5" clip-path="url(#clip-path)"><path class="cls-3" d="M23 12.77a.56.56 0 0 1-.53-.4l-2.6-8.23a.56.56 0 1 1 1.07-.33L23.49 12a.56.56 0 0 1-.37.7.47.47 0 0 1-.12.07z" fill="#78dda3"/><path class="cls-3" d="M18.53 16.09a.65.65 0 0 1-.34-.11L11 10.57a.56.56 0 1 1 .68-.89l7.16 5.4a.56.56 0 0 1 .11.79.58.58 0 0 1-.42.22z" fill="#78dda3"/><path class="cls-3" d="M37.05 12.77a.47.47 0 0 1-.17 0 .56.56 0 0 1-.37-.7l2.55-8.23a.56.56 0 1 1 1.07.33l-2.55 8.23a.56.56 0 0 1-.53.37z" fill="#78dda3"/><path class="cls-3" d="M41.47 16.09a.58.58 0 0 1-.45-.22.56.56 0 0 1 .11-.79l7.16-5.4a.56.56 0 1 1 .68.89L41.81 16a.65.65 0 0 1-.34.09z" fill="#78dda3"/></g></g></symbol><symbol id="icon-Community" viewBox="0 0 60 60"><g class="nc-icon-wrapper"><defs><clipPath id="clip-path"><circle class="cls-1" cx="30" cy="30.03" r="27" fill="none"/></clipPath></defs><title>Community</title><circle class="cls-2" cx="30" cy="30.03" r="27" fill="#00b964"/><path class="cls-3" d="M50.7 24h-1.51v-1.52a.56.56 0 0 0-.56-.56.57.57 0 0 0-.57.56V24h-1.5a.56.56 0 1 0 0 1.12h1.5v1.51a.57.57 0 0 0 .57.56.56.56 0 0 0 .56-.56v-1.52h1.51a.56.56 0 1 0 0-1.12z" fill="#78dda3"/><path class="cls-3" d="M17.24 42.31h-1.51V40.8a.57.57 0 0 0-1.13 0v1.51h-1.51a.56.56 0 1 0 0 1.12h1.51v1.51a.57.57 0 0 0 1.13 0v-1.51h1.51a.56.56 0 0 0 0-1.12z" fill="#78dda3"/><circle class="cls-3" cx="11.12" cy="22.99" r=".83" fill="#78dda3"/><circle class="cls-3" cx="46.56" cy="42.35" r=".83" fill="#78dda3"/><circle class="cls-3" cx="11.12" cy="37.89" r=".83" fill="#78dda3"/><path class="cls-3" d="M9.47 31.94a2.21 2.21 0 1 1 2.21-2.21 2.21 2.21 0 0 1-2.21 2.21zm0-3.29a1.08 1.08 0 1 0 1.08 1.08 1.08 1.08 0 0 0-1.08-1.08z" fill="#78dda3"/><path class="cls-3" d="M39.2 46a2.21 2.21 0 1 1 2.2-2.21A2.21 2.21 0 0 1 39.2 46zm0-3.29a1.08 1.08 0 1 0 1.08 1.08 1.08 1.08 0 0 0-1.08-1.1z" fill="#78dda3"/><path class="cls-3" d="M50.7 37.24A2.21 2.21 0 1 1 52.9 35a2.21 2.21 0 0 1-2.2 2.24zm0-3.29A1.08 1.08 0 1 0 51.78 35a1.08 1.08 0 0 0-1.08-1z" fill="#78dda3"/><path class="cls-3" d="M32.67 50.22h-5.34a.57.57 0 0 1-.56-.57V13.1A2.24 2.24 0 0 1 29 10.86h2a2.24 2.24 0 0 1 2.24 2.24v36.55a.57.57 0 0 1-.57.57zm-4.77-1.13h4.2v-36A1.1 1.1 0 0 0 31 12h-2a1.1 1.1 0 0 0-1.1 1.1z" fill="#78dda3"/><path class="cls-4" d="M38.53 24.79h-19.8a1.55 1.55 0 0 1-1.56-1.55v-5.77a1.56 1.56 0 0 1 1.56-1.55h19.76a1.57 1.57 0 0 1 1.15.5l2.78 3a1.56 1.56 0 0 1-.05 2.15l-2.74 2.74a1.56 1.56 0 0 1-1.1.48z" fill="#fff"/><path class="cls-3" d="M37.31 19.25H20.44a.57.57 0 0 1-.57-.57.56.56 0 0 1 .57-.56h16.87a.56.56 0 0 1 .56.56.57.57 0 0 1-.56.57z" fill="#78dda3"/><path class="cls-3" d="M37.31 22.48H20.44a.56.56 0 0 1-.57-.56.57.57 0 0 1 .57-.57h16.87a.57.57 0 0 1 .56.57.56.56 0 0 1-.56.56z" fill="#78dda3"/><path class="cls-4" d="M21.47 37.89h19.8a1.56 1.56 0 0 0 1.56-1.56v-5.76A1.55 1.55 0 0 0 41.27 29H21.51a1.57 1.57 0 0 0-1.15.5l-2.78 3a1.56 1.56 0 0 0 .05 2.15l2.74 2.73a1.57 1.57 0 0 0 1.1.51z" fill="#fff"/><path class="cls-3" d="M39.56 32.36H22.69a.56.56 0 1 1 0-1.12h16.87a.56.56 0 1 1 0 1.12z" fill="#78dda3"/><path class="cls-3" d="M39.56 35.59H22.69a.56.56 0 1 1 0-1.12h16.87a.56.56 0 1 1 0 1.12z" fill="#78dda3"/><path class="cls-3" d="M52.5 50.22H7.35a.57.57 0 0 1-.56-.57.56.56 0 0 1 .56-.56H52.5a.56.56 0 0 1 .56.56.57.57 0 0 1-.56.57z" fill="#78dda3"/><path class="cls-3" d="M30 9.28a.56.56 0 0 1-.56-.56V7.47a.56.56 0 0 1 1.12 0v1.25a.56.56 0 0 1-.56.56z" fill="#78dda3"/><path class="cls-3" d="M30 5.44a.56.56 0 0 1-.56-.56V.56a.56.56 0 0 1 1.12 0v4.32a.56.56 0 0 1-.56.56z" fill="#78dda3"/><g class="cls-5" clip-path="url(#clip-path)"><path class="cls-3" d="M39 14.52h-.17a.56.56 0 0 1-.36-.71l2.62-8.3a.56.56 0 0 1 .7-.37.57.57 0 0 1 .37.71l-2.62 8.3a.57.57 0 0 1-.54.37z" fill="#78dda3"/><path class="cls-3" d="M21 14.48a.57.57 0 0 1-.54-.39l-2.6-8.26a.56.56 0 1 1 1.07-.34l2.61 8.26a.57.57 0 0 1-.37.71z" fill="#78dda3"/></g><path class="cls-3" d="M11.5 14.22a.56.56 0 0 1-.4-.17l-3.68-3.82a.56.56 0 0 1 .81-.78l3.68 3.82a.56.56 0 0 1 0 .79.54.54 0 0 1-.41.16z" fill="#78dda3"/><path class="cls-3" d="M15.17 18a.55.55 0 0 1-.4-.18l-2.08-2.12a.55.55 0 0 1 0-.79.56.56 0 0 1 .79 0l2.08 2.16a.57.57 0 0 1-.41 1z" fill="#78dda3"/><path class="cls-3" d="M48.63 14.22a.54.54 0 0 1-.39-.16.56.56 0 0 1 0-.79l3.67-3.82a.57.57 0 0 1 .82.78L49 14.05a.58.58 0 0 1-.37.17z" fill="#78dda3"/><path class="cls-3" d="M44.19 19a.55.55 0 0 1-.38-.15.57.57 0 0 1 0-.8L46.66 15a.57.57 0 0 1 .83.77l-2.89 3.09a.55.55 0 0 1-.41.14z" fill="#78dda3"/></g></symbol><symbol id="icon-Competitions" viewBox="0 0 60 60"><g class="nc-icon-wrapper"><defs><clipPath id="clip-path"><circle class="cls-1" cx="30" cy="30.03" r="27" fill="none"/></clipPath></defs><title>Competition</title><circle class="cls-2" cx="30" cy="30.03" r="27" fill="#00b964"/><path class="cls-3" d="M30 7.28a.57.57 0 0 1-.56-.57V.56a.56.56 0 0 1 1.12 0v6.15a.57.57 0 0 1-.56.57z" fill="#78dda3"/><path class="cls-3" d="M30 12.39a.56.56 0 0 1-.56-.56V9.22a.56.56 0 1 1 1.12 0v2.61a.56.56 0 0 1-.56.56z" fill="#78dda3"/><path class="cls-3" d="M8.16 17a.5.5 0 0 1-.28-.08L4.24 14.8a.56.56 0 1 1 .56-1l3.64 2.1a.56.56 0 0 1-.28 1.1z" fill="#78dda3"/><path class="cls-3" d="M15.53 21.23a.58.58 0 0 1-.28-.07L9.74 18a.56.56 0 0 1 .56-1l5.51 3.18A.57.57 0 0 1 16 21a.58.58 0 0 1-.47.23z" fill="#78dda3"/><g class="cls-4" clip-path="url(#clip-path)"><path class="cls-3" d="M21.5 14.86a.56.56 0 0 1-.49-.29L14.8 3.82a.56.56 0 1 1 1-.56L22 14a.57.57 0 0 1-.2.77.6.6 0 0 1-.3.09z" fill="#78dda3"/><path class="cls-3" d="M12.4 27.5L3 27.39a.56.56 0 1 1 0-1.12l9.36.1a.57.57 0 0 1 0 1.13z" fill="#78dda3"/><path class="cls-3" d="M47.42 27.5a.57.57 0 0 1 0-1.13l9.57-.1a.54.54 0 0 1 .57.55.55.55 0 0 1-.55.57l-9.58.11z" fill="#78dda3"/><path class="cls-3" d="M38.53 14.88a.6.6 0 0 1-.28-.08.57.57 0 0 1-.25-.8l6.26-10.74a.56.56 0 0 1 1 .56L39 14.59a.58.58 0 0 1-.47.29z" fill="#78dda3"/></g><path class="cls-3" d="M51.85 17a.55.55 0 0 1-.49-.28.56.56 0 0 1 .2-.77l3.65-2.1A.56.56 0 0 1 56 14a.57.57 0 0 1-.21.77l-3.64 2.1a.5.5 0 0 1-.3.13z" fill="#78dda3"/><path class="cls-3" d="M44.48 21.23A.55.55 0 0 1 44 21a.56.56 0 0 1 .21-.77l5.5-3.23a.56.56 0 1 1 .56 1l-5.51 3.18a.58.58 0 0 1-.28.05z" fill="#78dda3"/><circle class="cls-3" cx="47.42" cy="42.57" r=".83" fill="#78dda3"/><circle class="cls-3" cx="30.26" cy="51.82" r=".83" fill="#78dda3"/><circle class="cls-3" cx="9" cy="33.82" r=".83" fill="#78dda3"/><path class="cls-3" d="M49.42 36.93a2.21 2.21 0 1 1 2.2-2.21 2.21 2.21 0 0 1-2.2 2.21zm0-3.29a1.08 1.08 0 1 0 1.08 1.08 1.08 1.08 0 0 0-1.08-1.08z" fill="#78dda3"/><path class="cls-3" d="M13.23 42.77a2.21 2.21 0 1 1 2.2-2.21 2.21 2.21 0 0 1-2.2 2.21zm0-3.29a1.09 1.09 0 1 0 1.08 1.08 1.08 1.08 0 0 0-1.08-1.08z" fill="#78dda3"/><path class="cls-5" d="M44.75 27c0-1.45-2.72-2.46-3.14-3.77s1.15-3.77.32-4.9-3.62-.37-4.76-1.2-1.25-3.7-2.61-4.13a1.34 1.34 0 0 0-.35-.05c-1.27 0-2.88 1.88-4.21 1.88s-2.94-1.88-4.21-1.88a1.34 1.34 0 0 0-.35.05c-1.36.44-1.48 3.34-2.61 4.16s-3.93.06-4.76 1.2.77 3.54.32 4.9-3.14 2.31-3.14 3.74 2.72 2.46 3.14 3.77-1.15 3.77-.32 4.9 3.62.37 4.76 1.2 1.25 3.72 2.61 4.16a1 1 0 0 0 .35.06c1.27 0 2.88-1.89 4.21-1.89s2.94 1.89 4.21 1.89a1 1 0 0 0 .35-.06c1.36-.44 1.48-3.33 2.61-4.16s3.93 0 4.76-1.2-.77-3.54-.32-4.9 3.14-2.29 3.14-3.77z" fill="#fff"/><path class="cls-3" d="M30 35.39a8.37 8.37 0 0 1 0-16.73.56.56 0 1 1 0 1.12A7.24 7.24 0 1 0 37.24 27a.56.56 0 1 1 1.12 0A8.37 8.37 0 0 1 30 35.39z" fill="#78dda3"/><path class="cls-3" d="M37 24.14a.56.56 0 0 1-.5-.31 6.58 6.58 0 0 0-.42-.73.58.58 0 0 1 .17-.78.57.57 0 0 1 .78.17q.26.41.48.84a.57.57 0 0 1-.26.76.53.53 0 0 1-.25.05z" fill="#78dda3"/><path class="cls-3" d="M35 21.57a.58.58 0 0 1-.35-.13 7.4 7.4 0 0 0-1.89-1.13.55.55 0 0 1-.31-.73.56.56 0 0 1 .73-.31 8.45 8.45 0 0 1 2.18 1.3.56.56 0 0 1 .08.79.55.55 0 0 1-.44.21z" fill="#78dda3"/><path class="cls-5" d="M28.46 41.13a5.2 5.2 0 0 1-2.67 1.1 2.09 2.09 0 0 1-.7-.11c-1.25-.4-1.75-1.7-2.19-2.85a4.53 4.53 0 0 0-.73-1.47 1.71 1.71 0 0 0-.68-.18l-5.11 10.46a.58.58 0 0 0 .1.64.57.57 0 0 0 .63.13l4.57-1.94 1.32 4.6a.57.57 0 0 0 .5.4.57.57 0 0 0 .51-.31l5.49-11.09a10.17 10.17 0 0 0-1.04.62z" fill="#fff"/><path class="cls-5" d="M38.51 37.62a1.9 1.9 0 0 0-.68.18 4.53 4.53 0 0 0-.73 1.47c-.44 1.15-.94 2.45-2.19 2.85a2.09 2.09 0 0 1-.7.11 5.2 5.2 0 0 1-2.67-1.1 10.17 10.17 0 0 0-1-.62l5.37 11.09a.57.57 0 0 0 .51.31.58.58 0 0 0 .5-.4l1.36-4.6 4.57 1.94a.57.57 0 0 0 .63-.13.58.58 0 0 0 .1-.64z" fill="#fff"/></g></symbol><symbol id="icon-Creative" viewBox="0 0 60 60"><g class="nc-icon-wrapper"><defs><clipPath id="clip-path"><circle class="cls-1" cx="30" cy="30.03" r="27" fill="none"/></clipPath></defs><title>Creative</title><circle class="cls-2" cx="30" cy="30.03" r="27" fill="#00b964"/><path class="cls-3" d="M45.29 44.85a2.21 2.21 0 1 1 2.2-2.21 2.21 2.21 0 0 1-2.2 2.21zm0-3.29a1.08 1.08 0 1 0 1.08 1.08 1.08 1.08 0 0 0-1.08-1.08z" fill="#78dda3"/><path class="cls-3" d="M12.38 37a2.21 2.21 0 1 1 2.21-2.21A2.21 2.21 0 0 1 12.38 37zm0-3.29a1.09 1.09 0 1 0 1.08 1.08 1.09 1.09 0 0 0-1.08-1.06z" fill="#78dda3"/><path class="cls-3" d="M30.38 51.21l1.07-1.07a.57.57 0 0 0-.8-.8l-1.06 1.07-1.07-1.07a.56.56 0 0 0-.79 0 .57.57 0 0 0 0 .8l1.06 1.07-1.06 1.06a.57.57 0 0 0 0 .8.53.53 0 0 0 .39.16.55.55 0 0 0 .4-.16L29.59 52l1.06 1.07a.57.57 0 0 0 .8-.8z" fill="#78dda3"/><circle class="cls-3" cx="39.63" cy="48.97" r=".83" fill="#78dda3"/><circle class="cls-3" cx="7.19" cy="30.03" r=".83" fill="#78dda3"/><path class="cls-4" d="M42.41 24.39c-.62-5-6.62-8.44-13.39-7.6-3.95.49-8.18 2.29-10.14 6-2.51 4.71-1.13 10.35 1.71 14.57 2.66 4 8 8.86 13.22 7.21a7.14 7.14 0 0 0 4.65-8.83 4.43 4.43 0 0 1 1.17-4.45 8.18 8.18 0 0 0 2.78-6.9z" fill="#fff"/><circle class="cls-2" cx="31.6" cy="37.73" r="3" fill="#00b964"/><path class="cls-3" d="M36.33 26.32a2.41 2.41 0 0 1-2.39-2.11A2.41 2.41 0 0 1 37.82 22a2.41 2.41 0 0 1 .42 3.38 2.41 2.41 0 0 1-1.61.91 1.51 1.51 0 0 1-.3.03zm0-3.7h-.16a1.29 1.29 0 0 0-1.12 1.44 1.25 1.25 0 0 0 .48.85 1.29 1.29 0 0 0 2.08-1.17 1.33 1.33 0 0 0-.49-.86 1.28 1.28 0 0 0-.78-.26z" fill="#78dda3"/><path class="cls-3" d="M29.58 23.81a2.37 2.37 0 0 1-1.48-.51 2.42 2.42 0 0 1-.42-3.39 2.45 2.45 0 0 1 1.61-.91 2.4 2.4 0 0 1 1.78.5 2.41 2.41 0 0 1 .42 3.38 2.41 2.41 0 0 1-1.61.91 1.51 1.51 0 0 1-.3.02zm0-3.7h-.16a1.25 1.25 0 0 0-.86.49 1.28 1.28 0 0 0-.26.95 1.25 1.25 0 0 0 .48.85 1.29 1.29 0 0 0 2.08-1.17 1.33 1.33 0 0 0-.49-.86 1.26 1.26 0 0 0-.78-.26z" fill="#78dda3"/><path class="cls-3" d="M23.36 27.5A2.43 2.43 0 0 1 21 25.38a2.43 2.43 0 0 1 2.1-2.69 2.47 2.47 0 0 1 1.78.49 2.41 2.41 0 0 1 .91 1.61 2.38 2.38 0 0 1-.49 1.78 2.41 2.41 0 0 1-1.61.91zm0-3.7h-.16a1.27 1.27 0 0 0-.86.48 1.29 1.29 0 0 0 1.18 2.07 1.25 1.25 0 0 0 .85-.48 1.3 1.3 0 0 0 .27-.95 1.33 1.33 0 0 0-.49-.86 1.26 1.26 0 0 0-.79-.26z" fill="#78dda3"/><path class="cls-3" d="M23.57 34.11A2.41 2.41 0 0 1 21.18 32a2.38 2.38 0 0 1 .49-1.78 2.41 2.41 0 1 1 3.8 3 2.36 2.36 0 0 1-1.6.91zm0-3.7h-.17a1.29 1.29 0 0 0-1.12 1.43 1.33 1.33 0 0 0 .49.86 1.29 1.29 0 0 0 .95.26 1.27 1.27 0 0 0 .86-.48 1.31 1.31 0 0 0 .26-1 1.25 1.25 0 0 0-.48-.86 1.28 1.28 0 0 0-.78-.21z" fill="#78dda3"/><path class="cls-3" d="M44.65 10c-1.36-1.1-3.25-2.4-4.44-2.4a3.23 3.23 0 0 0-2.3 1c-.54-.09-1.68-.27-3.13-.37h-.06c-.69 0-1.45-.08-2.24-.08-2.45 0-8.6.75-11.13 1.08a1.76 1.76 0 0 0 0 3.5c2.53.32 8.68 1.08 11.13 1.08.81 0 1.57 0 2.26-.08a26.69 26.69 0 0 0 3.38-.41 3.2 3.2 0 0 0 2.07.77c1.19 0 3.08-1.3 4.44-2.39a1.06 1.06 0 0 0 .4-.83 1 1 0 0 0-.38-.87zm-23.16 1.56a.64.64 0 0 1-.55-.63.65.65 0 0 1 .55-.64C24 10 30.1 9.22 32.48 9.22h1.7v3.32h-1.7c-2.38.09-8.48-.65-10.99-.98zM37 12.3c-.36.06-.94.14-1.68.21V9.35c.74.07 1.32.15 1.68.21zm3.23.61a2.1 2.1 0 1 1 0-4.19c.65 0 2.08.82 3.74 2-1.68 1.37-3.11 2.19-3.76 2.19z" fill="#78dda3"/><path class="cls-3" d="M20.62 40.68H5.88a.57.57 0 0 0-.56.57V52a.56.56 0 0 0 .56.56h14.74a.56.56 0 0 0 .56-.56V41.25a.57.57 0 0 0-.56-.57zM6.44 41.81h13.62V44l-2.92 3.77-1.24-1.26a.56.56 0 0 0-.44-.16.54.54 0 0 0-.41.23l-3.42 4.84H6.44zM13 51.42l2.58-3.65L16.8 49a.58.58 0 0 0 .43.16.56.56 0 0 0 .41-.22l2.42-3.13v5.64z" fill="#78dda3"/><path class="cls-3" d="M12.9 45.9a2.72 2.72 0 1 0-2.72 2.72 2.72 2.72 0 0 0 2.72-2.72zm-4.31 0a1.6 1.6 0 0 1 3.19 0 1.6 1.6 0 1 1-3.19 0z" fill="#78dda3"/><path class="cls-3" d="M48.54 34.22a10.81 10.81 0 0 1-5.82-1.17.56.56 0 0 0-.76.24.55.55 0 0 0 .24.75 11.93 11.93 0 0 0 5.48 1.34h1a.56.56 0 0 0-.09-1.12z" fill="#78dda3"/><path class="cls-3" d="M50.47 26.58l-.1-.06c-2-1.05-3.18-2.08-3-4a5.26 5.26 0 0 1 1.41-3.18.57.57 0 0 0-.84-.76 6.53 6.53 0 0 0-1.7 3.86c-.17 2.65 1.65 4 3.65 5.07l.1.05c2.24 1.19 4 2.33 3.14 4.23a4.15 4.15 0 0 1-2.58 2.06.57.57 0 0 0-.39.7.57.57 0 0 0 .54.4.44.44 0 0 0 .16 0 5.33 5.33 0 0 0 3.3-2.67c1.35-3.03-1.81-4.71-3.69-5.7z" fill="#78dda3"/><path class="cls-3" d="M56.69 11.59c-1-2.4-5.78-1.76-8.63-1.37-.59.08-1.1.15-1.32.15a.56.56 0 0 0 0 1.12 14.5 14.5 0 0 0 1.47-.16c2-.27 6.77-.91 7.45.7a1.8 1.8 0 0 1 0 1.52c-.8 1.76-4 2.91-5 3.22a5.53 5.53 0 0 0-.94.4.56.56 0 0 0-.24.76.57.57 0 0 0 .5.3.48.48 0 0 0 .26-.07 5.57 5.57 0 0 1 .76-.32c1.38-.44 4.71-1.7 5.68-3.82a2.9 2.9 0 0 0 .01-2.43z" fill="#78dda3"/><g class="cls-5" clip-path="url(#clip-path)"><path class="cls-3" d="M16.22 23.05a.64.64 0 0 1-.3-.08L3.17 15a.56.56 0 1 1 .6-.95L16.51 22a.56.56 0 0 1 .18.78.55.55 0 0 1-.47.27z" fill="#78dda3"/><path class="cls-3" d="M13.61 13.91a.56.56 0 0 1-.48-.27l-2.46-4.05a.57.57 0 1 1 1-.59l2.45 4.06a.56.56 0 0 1-.19.77.6.6 0 0 1-.32.08z" fill="#78dda3"/><path class="cls-3" d="M17.73 20.71a.55.55 0 0 1-.48-.28l-2.77-4.56a.56.56 0 1 1 1-.59l2.77 4.57a.56.56 0 0 1-.19.77.52.52 0 0 1-.33.09z" fill="#78dda3"/><path class="cls-3" d="M8.67 25.78H3.09a.56.56 0 1 1 0-1.12h5.59a.57.57 0 1 1 0 1.13z" fill="#78dda3"/><path class="cls-3" d="M15.67 25.82h-4.13a.56.56 0 1 1 0-1.12h4.12a.56.56 0 0 1 0 1.12z" fill="#78dda3"/></g></g></symbol><symbol id="icon-Educational" viewBox="0 0 60 60"><g class="nc-icon-wrapper"><defs><clipPath id="clip-path"><rect class="cls-1" x="13.82" y="17.23" width="32.36" height="25.55" rx=".65" ry=".65" fill="none"/></clipPath></defs><title>Educational</title><circle class="cls-2" cx="30" cy="30.03" r="27" fill="#00b964"/><rect class="cls-3" x="13.82" y="17.23" width="32.36" height="25.55" rx=".65" ry=".65" fill="#fff"/><path class="cls-3" d="M14.47 17.23H30v25.54H14.47a.65.65 0 0 1-.65-.65V17.88a.65.65 0 0 1 .65-.65z" fill="#fff"/><path class="cls-4" d="M42.65 22.35h-9.12a.56.56 0 1 1 0-1.12h9.12a.56.56 0 0 1 0 1.12z" fill="#78dda3"/><path class="cls-4" d="M42.65 26.73h-9.12a.57.57 0 0 1-.57-.56.58.58 0 0 1 .57-.57h9.12a.57.57 0 0 1 .56.57.56.56 0 0 1-.56.56z" fill="#78dda3"/><path class="cls-4" d="M42.65 31.1h-9.12a.56.56 0 1 1 0-1.12h9.12a.56.56 0 1 1 0 1.12z" fill="#78dda3"/><path class="cls-4" d="M42.65 35.48h-9.12a.57.57 0 0 1-.57-.56.58.58 0 0 1 .57-.57h9.12a.57.57 0 0 1 .56.57.56.56 0 0 1-.56.56z" fill="#78dda3"/><path class="cls-4" d="M42.65 39.85h-9.12a.56.56 0 1 1 0-1.12h9.12a.56.56 0 0 1 0 1.12z" fill="#78dda3"/><path class="cls-4" d="M26.47 22.35h-9.12a.56.56 0 0 1 0-1.12h9.12a.56.56 0 1 1 0 1.12z" fill="#78dda3"/><path class="cls-4" d="M26.47 26.73h-9.12a.56.56 0 0 1-.56-.56.57.57 0 0 1 .56-.57h9.12a.58.58 0 0 1 .57.57.57.57 0 0 1-.57.56z" fill="#78dda3"/><path class="cls-4" d="M26.47 31.1h-9.12a.56.56 0 1 1 0-1.12h9.12a.56.56 0 1 1 0 1.12z" fill="#78dda3"/><path class="cls-4" d="M26.47 35.48h-9.12a.56.56 0 0 1-.56-.56.57.57 0 0 1 .56-.57h9.12a.58.58 0 0 1 .57.57.57.57 0 0 1-.57.56z" fill="#78dda3"/><path class="cls-4" d="M26.47 39.85h-9.12a.56.56 0 0 1 0-1.12h9.12a.56.56 0 1 1 0 1.12z" fill="#78dda3"/><path class="cls-4" d="M42.47 10.58a2.55 2.55 0 0 0-.75.49 2.29 2.29 0 0 0-.7 1.61 1.27 1.27 0 0 0 0 .2V13a1.57 1.57 0 0 0 0 .23v.1c.07.41.15.81.23 1.19a.56.56 0 0 0 .55.45h.2a.57.57 0 0 0 .44-.67c-.08-.37-.15-.75-.23-1.17V13a.52.52 0 0 1 0-.11v-.18a1.15 1.15 0 0 1 .35-.81 1.28 1.28 0 0 1 .4-.27.55.55 0 0 0 .3-.73.55.55 0 0 0-.79-.32z" fill="#78dda3"/><path class="cls-4" d="M53.87 9.25a4.82 4.82 0 0 0-3.45-1.37h-.24a5.08 5.08 0 0 0 .71-1A5 5 0 0 0 51 2.39a.56.56 0 0 0-.59-.32 5 5 0 0 0-3.71 2.58 4.88 4.88 0 0 0-.36.89 8.6 8.6 0 0 0-.88-1.15.58.58 0 0 0-.8 0 .57.57 0 0 0 0 .8 5.65 5.65 0 0 1 1.6 3.34 4.22 4.22 0 0 1-1-.26 4.81 4.81 0 0 0-1.76-.36h-.08a4.85 4.85 0 0 0-4.84 4.77v.62c0 .17.05.35.08.49.07.4.18 1 .32 1.61a.56.56 0 0 0 1.1-.24c-.14-.63-.24-1.18-.31-1.59a3.94 3.94 0 0 1-.08-.42v-.06a.08.08 0 0 0 0-.07v-.33A3.74 3.74 0 0 1 43.52 9a3.66 3.66 0 0 1 1.35.28 5.55 5.55 0 0 0 1.83.39h.19a5.55 5.55 0 0 0 2.2-.41A3.7 3.7 0 0 1 50.44 9a3.87 3.87 0 0 1 2.65 1.05 3.66 3.66 0 0 1 1.13 2.61v.48a4 4 0 0 1-.08.43c-.94 5.31-2.51 8.87-3.92 8.87a6.14 6.14 0 0 1-1.34-.24l-.38-.1a.56.56 0 0 0-.27 1.09l.37.09a6.58 6.58 0 0 0 1.62.29c2.87 0 4.38-6.15 5-9.78a3.05 3.05 0 0 0 .08-.5v-.17a.43.43 0 0 0 0-.16v-.31a4.77 4.77 0 0 0-1.43-3.4zm-6.14-4.06a3.88 3.88 0 0 1 2.45-1.92 3.92 3.92 0 0 1-2.73 5 3.91 3.91 0 0 1 .28-3.08z" fill="#78dda3"/><path class="cls-4" d="M8.79 36.29A2.21 2.21 0 1 1 11 34.08a2.21 2.21 0 0 1-2.21 2.21zm0-3.29a1.09 1.09 0 1 0 1.08 1.08A1.08 1.08 0 0 0 8.79 33z" fill="#78dda3"/><path class="cls-4" d="M12.47 16.51a.6.6 0 0 1-.44-.2L6.14 9.17a.56.56 0 0 1 .07-.79.57.57 0 0 1 .8.08l5.89 7.13a.56.56 0 0 1-.07.79.57.57 0 0 1-.36.13z" fill="#78dda3"/><path class="cls-4" d="M13.49 10.81a.55.55 0 0 1-.54-.44l-.72-3.2a.56.56 0 0 1 .42-.67.57.57 0 0 1 .68.43l.71 3.2a.56.56 0 0 1-.42.67z" fill="#78dda3"/><path class="cls-4" d="M14.7 16.18a.57.57 0 0 1-.55-.44l-.81-3.61a.56.56 0 0 1 1.1-.24l.81 3.6a.57.57 0 0 1-.43.68z" fill="#78dda3"/><path class="cls-4" d="M7.64 17.51a.57.57 0 0 1-.18 0L3.8 16.23a.57.57 0 1 1 .37-1.07l3.65 1.26a.55.55 0 0 1 .35.71.55.55 0 0 1-.53.38z" fill="#78dda3"/><path class="cls-4" d="M12.22 19.08a.57.57 0 0 1-.18 0l-2.7-.92a.56.56 0 0 1 .36-1.07l2.7.93a.55.55 0 0 1 .35.71.55.55 0 0 1-.53.35z" fill="#78dda3"/><path class="cls-4" d="M54.49 50.43a.59.59 0 0 1-.36-.13L52.5 49a.56.56 0 0 1-.07-.79.57.57 0 0 1 .79-.08l1.62 1.35a.56.56 0 0 1 .08.79.54.54 0 0 1-.43.16z" fill="#78dda3"/><path class="cls-4" d="M51.42 47.9a.58.58 0 0 1-.35-.13L47 44.4a.56.56 0 0 1-.08-.79.57.57 0 0 1 .79-.08l4.07 3.37a.56.56 0 0 1-.36 1z" fill="#78dda3"/><path class="cls-4" d="M56.25 44.22h-.12l-5-1.12a.56.56 0 1 1 .29-1.1l5 1.11a.56.56 0 0 1-.13 1.11z" fill="#78dda3"/><path class="cls-4" d="M51.29 43.11h-.12l-3.61-.8a.57.57 0 0 1-.42-.68.56.56 0 0 1 .67-.42l3.61.81a.56.56 0 0 1-.13 1.11z" fill="#78dda3"/><path class="cls-4" d="M47.61 53a.56.56 0 0 1-.54-.38l-2.82-8.22a.57.57 0 0 1 .35-.72.56.56 0 0 1 .71.35l2.83 8.24a.56.56 0 0 1-.53.74z" fill="#78dda3"/><path class="cls-4" d="M38.09 46.77H19l-2.91 1.5a.56.56 0 0 0 0 1L19 51.14a.6.6 0 0 0 .29.08h18.8a.56.56 0 0 0 .56-.56v-3.33a.56.56 0 0 0-.56-.56zM33 50.1H20.24l.58-1a.56.56 0 0 0 0-.62l-.44-.6H33zm-13.92-2.05l.59.81-.61 1-1.59-1zm15-.15h1v2.2h-1zm3.44 2.2h-1.33v-2.2h1.34z" fill="#78dda3"/><path class="cls-4" d="M25 10.62h-1.55v-1.5a.56.56 0 1 0-1.12 0v1.5h-1.51a.58.58 0 0 0-.57.57.57.57 0 0 0 .57.56h1.51v1.5a.56.56 0 1 0 1.12 0v-1.5H25a.56.56 0 0 0 .56-.56.57.57 0 0 0-.56-.57z" fill="#78dda3"/><circle class="cls-4" cx="31.17" cy="9.02" r=".83" fill="#78dda3"/><circle class="cls-4" cx="51.87" cy="34.92" r=".83" fill="#78dda3"/><circle class="cls-4" cx="8.79" cy="24.77" r=".83" fill="#78dda3"/><g class="cls-5" clip-path="url(#clip-path)"><path class="cls-4" d="M30 43.36a.56.56 0 0 1-.56-.56V17.25a.56.56 0 0 1 1.12 0V42.8a.56.56 0 0 1-.56.56z" fill="#78dda3"/></g></g></symbol><symbol id="icon-Emergencies" viewBox="0 0 60 60"><g class="nc-icon-wrapper"><defs><clipPath id="clip-path"><circle class="cls-1" cx="30" cy="29.98" r="27" fill="none"/></clipPath></defs><title>Emergencies</title><circle class="cls-2" cx="30" cy="29.98" r="27" fill="#00b964"/><g class="cls-3" clip-path="url(#clip-path)"><circle class="cls-2" cx="30" cy="29.98" r="27" fill="#00b964"/><path class="cls-4" d="M30 17.32a.56.56 0 0 1-.56-.56v-5.82a.56.56 0 0 1 1.12 0v5.82a.56.56 0 0 1-.56.56z" fill="#78dda3"/><path class="cls-4" d="M22.57 18.05a.58.58 0 0 1-.49-.28L15.85 7a.56.56 0 1 1 1-.56l6.24 10.8a.57.57 0 0 1-.21.77.55.55 0 0 1-.31.04z" fill="#78dda3"/><path class="cls-4" d="M15.51 30.39H3a.56.56 0 1 1 0-1.12h12.51a.56.56 0 1 1 0 1.12z" fill="#78dda3"/><path class="cls-4" d="M17.25 23.56a.54.54 0 0 1-.28-.08L12.71 21a.56.56 0 0 1 .56-1l4.26 2.46a.56.56 0 0 1 .2.77.55.55 0 0 1-.48.33z" fill="#78dda3"/><path class="cls-4" d="M51.9 51.66H8.1a.56.56 0 1 1 0-1.12h43.8a.56.56 0 1 1 0 1.12z" fill="#78dda3"/><path class="cls-4" d="M57 30.39H44.53a.56.56 0 1 1 0-1.12H57a.56.56 0 1 1 0 1.12z" fill="#78dda3"/></g><path class="cls-4" d="M54.77 46.89H5.23a.57.57 0 0 1-.56-.57.56.56 0 0 1 .56-.56h49.54a.56.56 0 0 1 .56.56.57.57 0 0 1-.56.57z" fill="#78dda3"/><path class="cls-4" d="M30 8.45a.57.57 0 0 1-.56-.57V.56a.56.56 0 0 1 1.12 0v7.32a.57.57 0 0 1-.56.57z" fill="#78dda3"/><path class="cls-4" d="M10.71 19.79a.6.6 0 0 1-.28-.08L4 16a.56.56 0 0 1 .57-1L11 18.74a.56.56 0 0 1-.28 1.05z" fill="#78dda3"/><path class="cls-4" d="M50.49 35.58H49v-1.51a.56.56 0 0 0-.56-.56.57.57 0 0 0-.57.56v1.51h-1.5a.56.56 0 1 0 0 1.12h1.5v1.51a.57.57 0 0 0 .57.56.56.56 0 0 0 .56-.56V36.7h1.51a.56.56 0 1 0 0-1.12z" fill="#78dda3"/><circle class="cls-4" cx="14.58" cy="35.14" r=".83" fill="#78dda3"/><path class="cls-4" d="M10.71 41.82a2.21 2.21 0 1 1 2.21-2.2 2.21 2.21 0 0 1-2.21 2.2zm0-3.28a1.08 1.08 0 1 0 1.08 1.08 1.08 1.08 0 0 0-1.08-1.08z" fill="#78dda3"/><path class="cls-5" d="M19.47 39.88a.76.76 0 0 1-.75-.82l1.05-12a6.73 6.73 0 0 1 6.73-6.73h7A6.73 6.73 0 0 1 40.23 27l1.05 12a.76.76 0 0 1-.75.82z" fill="#fff"/><path class="cls-4" d="M46.32 17.45a.57.57 0 0 0 .57-.56v-5.82a.57.57 0 0 0-.57-.56.56.56 0 0 0-.56.56v5.82a.56.56 0 0 0 .56.56z" fill="#78dda3"/><path class="cls-4" d="M46.23 7.62a7.46 7.46 0 0 0-7.46 7.46 7.34 7.34 0 0 0 .68 3.07l-2.28 4.57a.54.54 0 0 0 .08.62.53.53 0 0 0 .42.2.57.57 0 0 0 .18 0L43 21.77a7.31 7.31 0 0 0 3.28.76 7.46 7.46 0 0 0 0-14.91zm0 13.79a6.21 6.21 0 0 1-3-.75.52.52 0 0 0-.44 0l-4 1.37 1.79-3.59a.57.57 0 0 0 0-.51 6.15 6.15 0 0 1-.69-2.82 6.34 6.34 0 1 1 6.34 6.33z" fill="#78dda3"/><path class="cls-4" d="M46.32 18.27a.62.62 0 1 0 0 1.24.62.62 0 0 0 0-1.24z" fill="#78dda3"/><path class="cls-4" d="M22.46 27.83a.55.55 0 0 1-.54-.58V27a4.59 4.59 0 0 1 4.59-4.56.56.56 0 1 1 0 1.12A3.48 3.48 0 0 0 23 27v.26a.55.55 0 0 1-.54.57z" fill="#78dda3"/><path class="cls-4" d="M34.6 39.88v-8.21a2.9 2.9 0 0 0-2.9-2.9h-3.4a2.9 2.9 0 0 0-2.9 2.9v8.21h1.12v-8.21a1.78 1.78 0 0 1 1.78-1.78h3.4a1.78 1.78 0 0 1 1.78 1.78v8.21h1.12z" fill="#78dda3"/><path class="cls-5" d="M43.06 41.44H16.94A1.43 1.43 0 0 0 15.7 43v1.21a1.43 1.43 0 0 0 1.24 1.55h26.12a1.43 1.43 0 0 0 1.24-1.55V43a1.43 1.43 0 0 0-1.24-1.56z" fill="#fff"/></g></symbol><symbol id="icon-Events" viewBox="0 0 60 60"><g class="nc-icon-wrapper"><defs><clipPath id="clip-path"><circle class="cls-1" cx="30" cy="30.03" r="27" fill="none"/></clipPath><clipPath id="clip-path-2"><rect class="cls-1" x="17.21" y="17.92" width="25.58" height="25.58" rx=".75" ry=".75" fill="none"/></clipPath></defs><title>Events</title><g class="cls-2" clip-path="url(#clip-path)"><circle class="cls-3" cx="30" cy="30.03" r="27" fill="#00b964"/><path class="cls-4" d="M15.06 16.05a.57.57 0 0 1-.43-.2L7.9 7.71A.56.56 0 0 1 8.77 7l6.72 8.14a.56.56 0 0 1-.07.79.55.55 0 0 1-.36.12z" fill="#78dda3"/><path class="cls-4" d="M16.23 9.55a.57.57 0 0 1-.55-.44l-.82-3.65a.57.57 0 0 1 .43-.67.56.56 0 0 1 .67.42l.82 3.66a.56.56 0 0 1-.42.67z" fill="#78dda3"/><path class="cls-4" d="M17.61 15.67a.56.56 0 0 1-.55-.43l-.93-4.12a.57.57 0 0 1 .43-.67.56.56 0 0 1 .67.42l.93 4.13a.57.57 0 0 1-.43.67z" fill="#78dda3"/><path class="cls-4" d="M9.55 17.2a.57.57 0 0 1-.18 0L5.2 15.73a.55.55 0 0 1-.35-.73.56.56 0 0 1 .71-.35l4.18 1.45a.57.57 0 0 1-.19 1.1z" fill="#78dda3"/><path class="cls-4" d="M14.78 19a.57.57 0 0 1-.18 0l-3.09-1.1a.56.56 0 1 1 .37-1.06L15 17.89a.56.56 0 0 1 .35.72.57.57 0 0 1-.57.39z" fill="#78dda3"/></g><rect class="cls-5" x="17.21" y="17.92" width="25.58" height="25.58" rx=".75" ry=".75" fill="#fff"/><path class="cls-4" d="M23.78 20.71a.56.56 0 0 1-.56-.56v-4.6a.57.57 0 0 1 .56-.57.58.58 0 0 1 .57.57v4.6a.57.57 0 0 1-.57.56z" fill="#78dda3"/><path class="cls-4" d="M36.22 20.71a.57.57 0 0 1-.57-.56v-4.6a.58.58 0 0 1 .57-.57.57.57 0 0 1 .56.57v4.6a.56.56 0 0 1-.56.56z" fill="#78dda3"/><path class="cls-4" d="M39.25 28.9h-18.5a.57.57 0 0 1-.56-.57.56.56 0 0 1 .56-.56h18.5a.56.56 0 0 1 .56.56.57.57 0 0 1-.56.57z" fill="#78dda3"/><path class="cls-4" d="M39.25 36.33h-18.5a.56.56 0 0 1-.56-.56.57.57 0 0 1 .56-.57h18.5a.57.57 0 0 1 .56.57.56.56 0 0 1-.56.56z" fill="#78dda3"/><path class="cls-4" d="M39.25 40h-18.5a.56.56 0 0 1 0-1.12h18.5a.56.56 0 0 1 0 1.12z" fill="#78dda3"/><path class="cls-4" d="M39.25 32.61h-18.5a.56.56 0 0 1 0-1.12h18.5a.56.56 0 1 1 0 1.12z" fill="#78dda3"/><g class="cls-6" clip-path="url(#clip-path-2)"><path class="cls-4" d="M42.79 24.76H17.21a.57.57 0 0 1-.56-.57.56.56 0 0 1 .56-.56h25.58a.56.56 0 0 1 .56.56.57.57 0 0 1-.56.57z" fill="#78dda3"/></g><path class="cls-4" d="M55.31 17.12c0-4.58-3.33-8.3-7.43-8.3-3.72 0-6.89 3.09-7.38 7.2a.56.56 0 1 0 1.12.13c.42-3.54 3.11-6.21 6.26-6.21 3.48 0 6.31 3.22 6.31 7.18s-2.83 7.17-6.31 7.17a5.76 5.76 0 0 1-3.3-1.06.57.57 0 0 0-.65.93 7 7 0 0 0 2.49 1.07l-.63 2.2a.6.6 0 0 0 .09.49.59.59 0 0 0 .45.23h.87c-.61 2.81 0 5.3.6 7.72.78 3.09 1.52 6-.39 9.44a.57.57 0 0 0 .22.77.68.68 0 0 0 .27.07.59.59 0 0 0 .5-.29c2.11-3.82 1.29-7.1.49-10.27-.61-2.46-1.19-4.8-.54-7.44h1.07a.59.59 0 0 0 .45-.23.6.6 0 0 0 .09-.49l-.62-2.18a8.13 8.13 0 0 0 5.97-8.13zm-7.1 8.29l.46 1.59h-1.59l.46-1.61z" fill="#78dda3"/><path class="cls-4" d="M45 14.32a.57.57 0 0 0 .42-.19A3.54 3.54 0 0 1 47.56 13a.56.56 0 0 0-.13-1.11 4.58 4.58 0 0 0-2.89 1.54.57.57 0 0 0 .05.79.55.55 0 0 0 .41.1z" fill="#78dda3"/><path class="cls-4" d="M43.77 17a.58.58 0 0 0 .56-.5 4.7 4.7 0 0 1 .17-.83.56.56 0 1 0-1.07-.33 5.1 5.1 0 0 0-.22 1 .56.56 0 0 0 .5.62z" fill="#78dda3"/><path class="cls-4" d="M13.44 52.92a7.94 7.94 0 0 1 0-15.88 7.82 7.82 0 0 1 1.6.16 8.36 8.36 0 0 1 1 .27.55.55 0 0 1 .35.71.55.55 0 0 1-.71.35 8.19 8.19 0 0 0-.85-.23 7 7 0 0 0-1.37-.14A6.82 6.82 0 1 0 20.25 45a.57.57 0 0 1 1.13 0 8 8 0 0 1-7.94 7.92z" fill="#78dda3"/><path class="cls-4" d="M16.37 47.15a.59.59 0 0 1-.26-.07l-2.94-1.61a.56.56 0 0 1-.29-.49v-4.65a.56.56 0 0 1 1.12 0v4.32l2.64 1.44a.55.55 0 0 1 .23.76.57.57 0 0 1-.5.3z" fill="#78dda3"/><path class="cls-4" d="M12.23 27h-1.51v-1.49a.56.56 0 0 0-.56-.56.57.57 0 0 0-.57.56V27h-1.5a.56.56 0 0 0-.56.56.57.57 0 0 0 .56.57h1.5v1.5a.58.58 0 0 0 .57.57.57.57 0 0 0 .56-.57v-1.5h1.51a.57.57 0 0 0 .56-.57.56.56 0 0 0-.56-.56z" fill="#78dda3"/><circle class="cls-4" cx="29.7" cy="51.06" r=".83" fill="#78dda3"/><circle class="cls-4" cx="33.1" cy="9.38" r=".83" fill="#78dda3"/><path class="cls-4" d="M26 11.49a2.21 2.21 0 1 1 2.2-2.2 2.21 2.21 0 0 1-2.2 2.2zm0-3.29a1.09 1.09 0 1 0 1 1.09 1.09 1.09 0 0 0-1-1.09z" fill="#78dda3"/><path class="cls-4" d="M40.23 51.62a2.21 2.21 0 1 1 2.2-2.2 2.21 2.21 0 0 1-2.2 2.2zm0-3.29a1.09 1.09 0 1 0 1.08 1.09 1.08 1.08 0 0 0-1.08-1.09z" fill="#78dda3"/></g></symbol><symbol id="icon-Faith" viewBox="0 0 60 60"><g class="nc-icon-wrapper"><title>Faith</title><circle class="cls-1" cx="30" cy="30.03" r="27" fill="#00b964"/><path class="cls-2" d="M51.9 20.35h-1.5v-1.5a.57.57 0 0 0-.57-.57.56.56 0 0 0-.56.57v1.5h-1.51a.57.57 0 0 0 0 1.13h1.51V23a.56.56 0 0 0 .56.56.57.57 0 0 0 .57-.56v-1.52h1.5a.57.57 0 1 0 0-1.13z" fill="#78dda3"/><path class="cls-2" d="M10.64 31.82H9.13v-1.51a.56.56 0 0 0-1.12 0v1.51H6.5a.56.56 0 1 0 0 1.12H8v1.51a.56.56 0 1 0 1.12 0v-1.51h1.51a.56.56 0 1 0 0-1.12z" fill="#78dda3"/><path class="cls-2" d="M31.24 45.57a.57.57 0 0 1-.57-.56v-4.14a.57.57 0 0 1 .57-.56.56.56 0 0 1 .56.56V45a.56.56 0 0 1-.56.57z" fill="#78dda3"/><path class="cls-2" d="M33.31 43.5h-4.14a.56.56 0 1 1 0-1.12h4.14a.56.56 0 0 1 0 1.12z" fill="#78dda3"/><circle class="cls-2" cx="42.86" cy="12.81" r=".83" fill="#78dda3"/><circle class="cls-2" cx="25.59" cy="8.86" r=".83" fill="#78dda3"/><circle class="cls-2" cx="41.45" cy="21.82" r=".83" fill="#78dda3"/><circle class="cls-2" cx="52.08" cy="28.73" r=".83" fill="#78dda3"/><circle class="cls-2" cx="29.17" cy="51.67" r=".83" fill="#78dda3"/><circle class="cls-2" cx="14.5" cy="42.19" r=".83" fill="#78dda3"/><path class="cls-2" d="M34.55 12.71a2.21 2.21 0 1 1 2.2-2.21 2.21 2.21 0 0 1-2.2 2.21zm0-3.29a1.08 1.08 0 1 0 1.08 1.08 1.08 1.08 0 0 0-1.08-1.08z" fill="#78dda3"/><path class="cls-2" d="M20.08 50.13a2.21 2.21 0 1 1 2.21-2.2 2.21 2.21 0 0 1-2.21 2.2zm0-3.29a1.09 1.09 0 1 0 1.09 1.09 1.09 1.09 0 0 0-1.09-1.09z" fill="#78dda3"/><path class="cls-2" d="M54.16 50.06H35.33a.56.56 0 0 1-.56-.56 5.16 5.16 0 0 1 5.8-5.09 5.12 5.12 0 0 1 8.6 1.36 5.1 5.1 0 0 1 5.53 3.56.58.58 0 0 1-.08.5.56.56 0 0 1-.46.23zm-18.23-1.12h17.39a4 4 0 0 0-4.39-2 .55.55 0 0 1-.66-.38 4 4 0 0 0-7-1.21.57.57 0 0 1-.56.21 4.26 4.26 0 0 0-.8-.08 4 4 0 0 0-3.98 3.46z" fill="#78dda3"/><path class="cls-2" d="M15 10a.58.58 0 0 1-.49-.28l-2.27-3.94a.56.56 0 0 1 .21-.78.54.54 0 0 1 .76.2l2.28 3.94a.57.57 0 0 1-.21.77.55.55 0 0 1-.28.09z" fill="#78dda3"/><path class="cls-2" d="M17.31 14a.55.55 0 0 1-.49-.28l-1.28-2.22a.56.56 0 1 1 1-.56l1.27 2.21a.56.56 0 0 1-.2.77.6.6 0 0 1-.3.08z" fill="#78dda3"/><path class="cls-2" d="M12.05 19.25a.57.57 0 0 1-.28-.08l-7.59-4.38a.56.56 0 1 1 .57-1l7.58 4.38a.56.56 0 0 1 .21.76.59.59 0 0 1-.49.32z" fill="#78dda3"/><path class="cls-2" d="M4.39 26.43H.56a.56.56 0 0 1-.56-.56.57.57 0 0 1 .56-.57h3.83a.57.57 0 0 1 .56.57.56.56 0 0 1-.56.56z" fill="#78dda3"/><path class="cls-2" d="M10.12 26.43H6.5a.56.56 0 0 1-.56-.56.57.57 0 0 1 .56-.57h3.62a.58.58 0 0 1 .57.57.57.57 0 0 1-.57.56z" fill="#78dda3"/><path class="cls-3" d="M49.2 37.2a.63.63 0 0 0 .64-.63 8.47 8.47 0 0 0-4.56-7.38 9.8 9.8 0 0 0-5.7-1.07 1.33 1.33 0 0 1-1.13-.42 9.09 9.09 0 0 0-15.2 2.3 1.36 1.36 0 0 1-1.41.8h-1a9.13 9.13 0 0 0-8.4 5.55.63.63 0 0 0 .57.87z" fill="#fff"/><path class="cls-3" d="M20.88 29.65a11.09 11.09 0 0 1 1.12.06.25.25 0 0 0 .22-.13 10.18 10.18 0 0 1 12.84-5.51A10.9 10.9 0 1 0 15 31.5a10.17 10.17 0 0 1 5.88-1.85z" fill="#fff"/><path class="cls-2" d="M46.06 34.76a.56.56 0 0 1-.49-.29 5.7 5.7 0 0 0-1.4-1.65.56.56 0 1 1 .7-.88 6.79 6.79 0 0 1 1.68 2 .56.56 0 0 1-.49.84zm-8.43-2.65a.55.55 0 0 1-.45-.22L36 30.37a5.78 5.78 0 0 0-.61-.69 5.48 5.48 0 0 0-3.83-1.54.58.58 0 0 1-.57-.57.57.57 0 0 1 .61-.57 6.62 6.62 0 0 1 4.61 1.86 6.47 6.47 0 0 1 .73.83l.92 1.23 1.52-.31a6.66 6.66 0 0 1 3.23.14.56.56 0 1 1-.32 1.08 5.56 5.56 0 0 0-2.69-.11l-1.86.37z" fill="#78dda3"/><path class="cls-2" d="M31 21.74a.55.55 0 0 1-.46-.24 7.31 7.31 0 0 0-1-1.16.57.57 0 0 1 .79-.81 9 9 0 0 1 1.12 1.33.56.56 0 0 1-.14.78.55.55 0 0 1-.31.1z" fill="#78dda3"/><path class="cls-2" d="M28.55 19.41a.52.52 0 0 1-.29-.09 7.56 7.56 0 0 0-4-1.11.56.56 0 0 1-.56-.56.57.57 0 0 1 .56-.57 8.72 8.72 0 0 1 4.54 1.28.57.57 0 0 1-.29 1.05z" fill="#78dda3"/></g></symbol><symbol id="icon-Family" viewBox="0 0 60 60"><g class="nc-icon-wrapper"><title>Family</title><circle class="cls-1" cx="30" cy="30.03" r="27" fill="#00b964"/><circle class="cls-2" cx="11.91" cy="43.5" r=".83" fill="#78dda3"/><circle class="cls-2" cx="40.02" cy="50.23" r=".83" fill="#78dda3"/><path class="cls-2" d="M45.63 47.15a2.21 2.21 0 1 1 2.2-2.21 2.21 2.21 0 0 1-2.2 2.21zm0-3.29a1.08 1.08 0 1 0 1.08 1.08 1.08 1.08 0 0 0-1.08-1.08z" fill="#78dda3"/><path class="cls-2" d="M17.45 50.42a2.21 2.21 0 1 1 2.21-2.2 2.2 2.2 0 0 1-2.21 2.2zm0-3.28a1.08 1.08 0 1 0 1.08 1.08 1.08 1.08 0 0 0-1.08-1.08z" fill="#78dda3"/><path class="cls-2" d="M48.74 40h-7.28a.56.56 0 0 1-.56-.56.57.57 0 0 1 .56-.57h6.6c-1.22-5.72-4.19-10.22-7.84-11.87a.58.58 0 0 1-.33-.45.58.58 0 0 1 .23-.52 4.91 4.91 0 0 0-2.91-8.87 4.94 4.94 0 0 0-4.62 3.21.56.56 0 1 1-1.05-.37 6 6 0 1 1 9.92 6.38c3.8 2.1 6.7 6.85 7.84 12.93a.56.56 0 0 1-.56.67z" fill="#78dda3"/><path class="cls-2" d="M18.58 40h-7.32a.56.56 0 0 1-.56-.67c1.14-6.08 4-10.83 7.84-12.93a6 6 0 1 1 9.92-6.4.56.56 0 1 1-1.05.39 4.92 4.92 0 0 0-9.54 1.71 4.88 4.88 0 0 0 2 3.95.58.58 0 0 1 .23.52.58.58 0 0 1-.33.45c-3.65 1.61-6.62 6.11-7.84 11.83h6.64a.58.58 0 0 1 .57.57.57.57 0 0 1-.56.58z" fill="#78dda3"/><path class="cls-3" d="M39.82 41.3c-1.17-4.9-3.77-8.68-7-10.11a4.79 4.79 0 1 0-5.64 0c-3.23 1.42-5.83 5.21-7 10.11a.94.94 0 0 0 .9 1.17h17.84a.94.94 0 0 0 .9-1.17z" fill="#fff"/><path class="cls-2" d="M30 29.66a4.14 4.14 0 0 1-2.24-.8.56.56 0 0 1 .62-.94 3.1 3.1 0 0 0 1.62.61 3.1 3.1 0 0 0 1.62-.61.56.56 0 1 1 .62.94 4.14 4.14 0 0 1-2.24.8z" fill="#78dda3"/><path class="cls-2" d="M30 18.21a.56.56 0 0 1-.56-.56V9.11a.56.56 0 1 1 1.12 0v8.54a.56.56 0 0 1-.56.56z" fill="#78dda3"/><path class="cls-2" d="M30 7a.56.56 0 0 1-.56-.56V.56a.56.56 0 0 1 1.12 0v5.86A.56.56 0 0 1 30 7z" fill="#78dda3"/><path class="cls-2" d="M59.44 32.69h-9.9a.56.56 0 1 1 0-1.12h9.9a.56.56 0 0 1 0 1.12z" fill="#78dda3"/><path class="cls-2" d="M45.63 23.67a.56.56 0 0 1-.28-1.05l3.53-2a.56.56 0 1 1 .56 1l-3.53 2a.58.58 0 0 1-.28.05z" fill="#78dda3"/><path class="cls-2" d="M51.24 20.43a.55.55 0 0 1-.49-.28.56.56 0 0 1 .21-.77l5.6-3.23a.56.56 0 0 1 .77.2.56.56 0 0 1-.21.77l-5.6 3.24a.58.58 0 0 1-.28.07z" fill="#78dda3"/><path class="cls-2" d="M40.31 14.83a.5.5 0 0 1-.28-.08.55.55 0 0 1-.2-.76l5.59-9.69a.56.56 0 1 1 1 .57l-5.62 9.68a.55.55 0 0 1-.49.28z" fill="#78dda3"/><path class="cls-2" d="M10.46 32.69H.56a.56.56 0 1 1 0-1.12h9.9a.56.56 0 1 1 0 1.12z" fill="#78dda3"/><path class="cls-2" d="M14.37 23.67a.58.58 0 0 1-.28-.07l-3.53-2a.56.56 0 0 1 .56-1l3.53 2a.57.57 0 0 1 .21.77.58.58 0 0 1-.49.3z" fill="#78dda3"/><path class="cls-2" d="M8.76 20.43a.58.58 0 0 1-.28-.07l-5.6-3.24a.56.56 0 1 1 .56-1L9 19.38a.56.56 0 0 1 .21.77.55.55 0 0 1-.45.28z" fill="#78dda3"/><path class="cls-2" d="M19.69 14.83a.55.55 0 0 1-.49-.28l-5.59-9.68a.56.56 0 1 1 1-.57l5.56 9.7a.55.55 0 0 1-.2.76.5.5 0 0 1-.28.07z" fill="#78dda3"/><path class="cls-2" d="M30 55.22a.6.6 0 0 1-.29-.08c-3.72-2.23-5.66-5.23-5.66-7a.42.42 0 0 1 0-.16 3.63 3.63 0 0 1 3.61-3.68A2.87 2.87 0 0 1 30 45.35a2.87 2.87 0 0 1 2.37-1.1A3.61 3.61 0 0 1 36 47.86h-.56l.56.06a.81.81 0 0 1 0 .22c0 1.77-1.94 4.77-5.66 7a.6.6 0 0 1-.34.08zm-2.34-9.85a2.5 2.5 0 0 0-2.49 2.49v.2c0 1.45 1.69 4 4.83 5.94 3.14-2 4.83-4.49 4.83-5.91v-.23a2.5 2.5 0 0 0-2.49-2.49 1.83 1.83 0 0 0-1.82 1.26.55.55 0 0 1-.52.37.52.52 0 0 1-.52-.29c-.6-1.19-1.29-1.34-1.82-1.34z" fill="#78dda3"/></g></symbol><symbol id="icon-Medical" viewBox="0 0 60 60"><g class="nc-icon-wrapper"><defs><clipPath id="clip-path"><circle class="cls-1" cx="30" cy="30" r="27" fill="none"/></clipPath></defs><title>Medical</title><g class="cls-2" clip-path="url(#clip-path)"><circle class="cls-3" cx="30" cy="30" r="27" fill="#00b964"/><path class="cls-4" d="M51.43 18.19a.56.56 0 0 1-.28-1.05l2-1.13a.57.57 0 0 1 .77.21.56.56 0 0 1-.21.77l-1.95 1.13a.58.58 0 0 1-.33.07z" fill="#78dda3"/><path class="cls-4" d="M47.5 20.46a.56.56 0 0 1-.29-1.05l2-1.18a.57.57 0 0 1 .77.21.55.55 0 0 1-.21.76l-2 1.19a.58.58 0 0 1-.27.07z" fill="#78dda3"/><path class="cls-4" d="M39.14 14.74a.54.54 0 0 1-.28-.08.56.56 0 0 1-.21-.77L43 6.34a.56.56 0 0 1 1 .56l-4.37 7.56a.55.55 0 0 1-.49.28z" fill="#78dda3"/><path class="cls-4" d="M30 16.56a.56.56 0 0 1-.56-.56v-3.22a.56.56 0 0 1 1.12 0V16a.56.56 0 0 1-.56.56z" fill="#78dda3"/><path class="cls-4" d="M16.5 54a.57.57 0 0 1-.5-.9l2.3-4a.57.57 0 0 1 .77-.21.56.56 0 0 1 .2.77l-2.29 4a.59.59 0 0 1-.48.34z" fill="#78dda3"/><path class="cls-4" d="M20.07 47.77a.57.57 0 0 1-.49-.85L21 44.48a.56.56 0 0 1 .77-.2.56.56 0 0 1 .2.77l-1.4 2.43a.59.59 0 0 1-.5.29z" fill="#78dda3"/><path class="cls-4" d="M30 57.56a.56.56 0 0 1-.56-.56v-7.59a.56.56 0 1 1 1.12 0V57a.56.56 0 0 1-.56.56z" fill="#78dda3"/><path class="cls-5" d="M45.17 26.82a8.58 8.58 0 0 0-8.58-8.58A6.69 6.69 0 0 0 30 22.75c-1.76-3.27-3.94-4.51-6.59-4.51a8.58 8.58 0 0 0-8.58 8.58v.66c0 4.53 5.09 12.24 14.63 18.13a1 1 0 0 0 1.08 0C40.08 39.72 45.17 32 45.17 27.48c.01-.22 0-.48 0-.66z" fill="#fff"/><path class="cls-4" d="M18.07 27.38a.56.56 0 0 1-.56-.56 5.9 5.9 0 0 1 5.9-5.9.56.56 0 0 1 .56.56.57.57 0 0 1-.56.57 4.78 4.78 0 0 0-4.78 4.77.56.56 0 0 1-.56.56z" fill="#78dda3"/><path class="cls-4" d="M30.08 38.3a.55.55 0 0 1-.51-.34l-3.11-7.09L25 34.36a.57.57 0 0 1-.52.34H12.16a.57.57 0 0 1-.56-.57.56.56 0 0 1 .56-.56h11.9l1.88-4.33a.57.57 0 0 1 .51-.34.56.56 0 0 1 .52.34l3 6.9 3.32-10.53a.58.58 0 0 1 .56-.39.56.56 0 0 1 .53.43l1.94 7.92h11.5a.56.56 0 0 1 .56.56.57.57 0 0 1-.56.57H35.9a.57.57 0 0 1-.55-.43l-1.57-6.4-3.16 10a.58.58 0 0 1-.51.4z" fill="#78dda3"/><path class="cls-4" d="M12.48 20.32h-.06a2.79 2.79 0 0 1-1.88-4.81 2.87 2.87 0 0 1 2-.77 2.78 2.78 0 0 1 2.73 2.84 2.78 2.78 0 0 1-2.78 2.74zm0-4.46a1.67 1.67 0 0 0-1.66 1.63 1.64 1.64 0 0 0 .46 1.19 1.66 1.66 0 0 0 1.17.51 1.54 1.54 0 0 0 1.19-.46 1.66 1.66 0 0 0 .51-1.17 1.68 1.68 0 0 0-.47-1.19 1.64 1.64 0 0 0-1.16-.51z" fill="#78dda3"/><circle class="cls-4" cx="36.75" cy="49.41" r=".95" fill="#78dda3"/><circle class="cls-4" cx="8.3" cy="27.64" r=".95" fill="#78dda3"/></g><path class="cls-4" d="M30 60a.56.56 0 0 1-.56-.56v-9.87a.56.56 0 1 1 1.12 0v9.87A.56.56 0 0 1 30 60z" fill="#78dda3"/><path class="cls-4" d="M30 10.8a.56.56 0 0 1-.56-.56V.56a.56.56 0 0 1 1.12 0v9.68a.56.56 0 0 1-.56.56z" fill="#78dda3"/><path class="cls-4" d="M51.6 18.09a.57.57 0 0 1-.27-1.09l3.91-2.14a.57.57 0 0 1 .77.22.55.55 0 0 1-.23.76L51.87 18a.5.5 0 0 1-.27.09z" fill="#78dda3"/><path class="cls-4" d="M4.54 45.26a.56.56 0 0 1-.29-1l10.17-5.86a.56.56 0 0 1 .77.2.57.57 0 0 1-.21.77L4.82 45.19a.58.58 0 0 1-.28.07z" fill="#78dda3"/><path class="cls-4" d="M47.93 39.84a5.64 5.64 0 0 0-2.49.57l-3.82-1.3a.56.56 0 0 0-.69.78l1.71 3.41a5.6 5.6 0 0 0-.51 2.33 5.8 5.8 0 1 0 5.8-5.79zm0 10.46a4.67 4.67 0 0 1-4.67-4.67 4.56 4.56 0 0 1 .51-2.08.55.55 0 0 0 0-.5l-1.22-2.44 2.75.94a.55.55 0 0 0 .45 0 4.61 4.61 0 0 1 2.18-.55 4.67 4.67 0 0 1 0 9.34z" fill="#78dda3"/><path class="cls-4" d="M50.22 44.85h-1.57v-1.57a.56.56 0 0 0-1.12 0v1.57H46a.56.56 0 0 0-.56.56.57.57 0 0 0 .56.59h1.57v1.56a.56.56 0 1 0 1.12 0V46h1.57a.57.57 0 0 0 .56-.57.56.56 0 0 0-.6-.58z" fill="#78dda3"/><path class="cls-4" d="M23.72 10.51h-1.57V8.94a.56.56 0 1 0-1.12 0v1.57h-1.57a.56.56 0 1 0 0 1.12H21v1.57a.56.56 0 0 0 1.12 0v-1.57h1.57a.56.56 0 1 0 0-1.12z" fill="#78dda3"/><path class="cls-4" d="M51.22 31.37h-.06a2.8 2.8 0 0 1-2.73-2.84 2.83 2.83 0 0 1 2.85-2.74 2.79 2.79 0 0 1-.06 5.58zm0-4.45a1.67 1.67 0 1 0 1.67 1.7 1.66 1.66 0 0 0-1.67-1.7zm2.23 1.71z" fill="#78dda3"/></g></symbol><symbol id="icon-Memorials" viewBox="0 0 60 60"><g class="nc-icon-wrapper"><defs><clipPath id="clip-path"><circle class="cls-1" cx="30" cy="30.03" r="27" fill="none"/></clipPath></defs><title>Memorials</title><circle class="cls-2" cx="30" cy="30.03" r="27" fill="#00b964"/><path class="cls-3" d="M30 20.62c-1.2 0-11.75-.1-11.75-3.38S28.8 13.87 30 13.87s11.75.09 11.75 3.37S31.2 20.62 30 20.62zm-9.93-3.38c.68.64 4.26 1.63 9.93 1.63s9.25-1 9.93-1.63c-.68-.63-4.26-1.62-9.93-1.62s-9.25.99-9.93 1.62z" fill="#fff"/><g class="cls-4" clip-path="url(#clip-path)"><path class="cls-5" d="M66 39.38H44.44a.56.56 0 0 1-.56-.56c0-3.83 2.23-4.63 4.1-4.63a7.2 7.2 0 0 1 2.6.54c.74-1.48 1.89-3 4.11-3a5.83 5.83 0 0 1 4.36 1.95 8.26 8.26 0 0 1 1.73-.18c3.52 0 5.8 2.07 5.8 5.28a.57.57 0 0 1-.58.6zm-21-1.13h20.4c-.28-2.63-2.53-3.59-4.64-3.59a7.14 7.14 0 0 0-1.79.23.54.54 0 0 1-.58-.19 4.7 4.7 0 0 0-3.72-1.8c-1.48 0-2.45.82-3.34 2.85a.6.6 0 0 1-.38.32.58.58 0 0 1-.49-.11 5.25 5.25 0 0 0-2.5-.65c-1.18 0-2.75.32-2.96 2.94z" fill="#78dda3"/></g><path class="cls-3" d="M42.7 29.92a7.17 7.17 0 0 0-7.18-7.17A5.6 5.6 0 0 0 30 26.52c-1.47-2.74-3.3-3.77-5.52-3.77a7.17 7.17 0 0 0-7.18 7.17 5.23 5.23 0 0 0 0 .56c0 3.8 4.28 10.29 12.33 15.24a.75.75 0 0 0 .74 0c8.05-4.95 12.33-11.44 12.33-15.24a5.23 5.23 0 0 0 0-.56z" fill="#fff"/><path class="cls-5" d="M20 30.49a.56.56 0 0 1-.56-.57 5 5 0 0 1 5-5 .56.56 0 1 1 0 1.12 3.91 3.91 0 0 0-3.91 3.9.56.56 0 0 1-.53.55z" fill="#78dda3"/><path class="cls-5" d="M42.31 22.21a.55.55 0 0 1-.41-.21.56.56 0 0 1 0-.79l10.6-10.06a.56.56 0 0 1 .79 0 .55.55 0 0 1 0 .79L42.7 22.05a.54.54 0 0 1-.39.16z" fill="#78dda3"/><path class="cls-5" d="M46 28.73a.55.55 0 0 1-.54-.44.57.57 0 0 1 .42-.68l13-2.91a.55.55 0 0 1 .67.43.56.56 0 0 1-.42.67l-13 2.91z" fill="#78dda3"/><path class="cls-5" d="M50.43 21.77a.55.55 0 0 1-.49-.28.57.57 0 0 1 .21-.77l6.27-3.51a.56.56 0 0 1 .77.21.57.57 0 0 1-.22.77L50.7 21.7a.52.52 0 0 1-.27.07z" fill="#78dda3"/><path class="cls-5" d="M44.07 25.34a.56.56 0 0 1-.28-1.05l3.08-1.73a.56.56 0 0 1 .76.22.55.55 0 0 1-.21.76l-3.08 1.73a.52.52 0 0 1-.27.07z" fill="#78dda3"/><circle class="cls-5" cx="43.87" cy="46.87" r=".83" fill="#78dda3"/><circle class="cls-5" cx="22.24" cy="9.12" r=".83" fill="#78dda3"/><circle class="cls-5" cx="9.22" cy="27.25" r=".83" fill="#78dda3"/><path class="cls-5" d="M15 16.8h-1.51v-1.5a.56.56 0 1 0-1.12 0v1.5h-1.51a.57.57 0 0 0-.56.57.56.56 0 0 0 .56.56h1.51v1.51a.56.56 0 0 0 1.12 0v-1.51H15a.56.56 0 0 0 .56-.56.57.57 0 0 0-.56-.57z" fill="#78dda3"/><path class="cls-5" d="M9.22 38a2.21 2.21 0 1 1 2.2-2.2 2.21 2.21 0 0 1-2.2 2.2zm0-3.29a1.09 1.09 0 1 0 1.08 1.09 1.08 1.08 0 0 0-1.08-1.06z" fill="#78dda3"/><path class="cls-5" d="M33.33 10.65a2.21 2.21 0 1 1 2.2-2.21 2.21 2.21 0 0 1-2.2 2.21zm0-3.29a1.08 1.08 0 1 0 1.08 1.08 1.08 1.08 0 0 0-1.08-1.08z" fill="#78dda3"/><path class="cls-5" d="M25.61 50.61H4a.56.56 0 0 1-.56-.56c0-3.21 2.27-5.28 5.79-5.28A8.26 8.26 0 0 1 11 45a5.83 5.83 0 0 1 4.36-2c2.22 0 3.37 1.48 4.11 3a7.2 7.2 0 0 1 2.6-.54c1.87 0 4.11.8 4.11 4.63a.57.57 0 0 1-.57.52zm-21-1.12H25c-.19-2.63-1.76-3-3-3a5.25 5.25 0 0 0-2.5.65.55.55 0 0 1-.86-.21c-.9-2-1.87-2.85-3.35-2.85a4.73 4.73 0 0 0-3.72 1.8.54.54 0 0 1-.58.19 7 7 0 0 0-1.79-.23c-2.04.05-4.29 1.01-4.57 3.65z" fill="#78dda3"/><path class="cls-5" d="M36.33 53a.55.55 0 0 1-.4-.16l-1.72-1.73a.52.52 0 0 1-.17-.39.58.58 0 0 1 .16-.4l1.73-1.73a.59.59 0 0 1 .8 0l1.72 1.73a.54.54 0 0 1 .17.4.52.52 0 0 1-.17.39l-1.72 1.73a.57.57 0 0 1-.4.16zm-.93-2.28l.93.93.93-.93-.93-.93z" fill="#78dda3"/></g></symbol><symbol id="icon-Newlyweds" viewBox="0 0 60 60"><g class="nc-icon-wrapper"><defs><clipPath id="clip-path"><circle class="cls-1" cx="30" cy="30.03" r="27" fill="none"/></clipPath></defs><title>Newlyweds</title><circle class="cls-2" cx="30" cy="30.03" r="27" fill="#00b964"/><path class="cls-3" d="M47.71 29.11a6.27 6.27 0 0 0-3.88-2.83 5.1 5.1 0 0 0-5 1.53A4.91 4.91 0 0 0 35 24.16a6.33 6.33 0 0 0-3.38.12 7.3 7.3 0 0 1 2.83 4.22v.12c0 .13.07.27.1.4.59 2.53-.38 6.74-3.49 11.29a31.51 31.51 0 0 0 3.48 4 .36.36 0 0 0 .27.11H35c7.74-2.43 12.58-7 13.35-10.13 0-.11.06-.22.08-.33v-.14a6.21 6.21 0 0 0-.72-4.71z" fill="#fff"/><path class="cls-4" d="M31.42 15l2.37-4.23a.56.56 0 0 0 0-.56.58.58 0 0 0-.49-.21h-6.6a.58.58 0 0 0-.49.28.56.56 0 0 0 0 .56L28.58 15a6.15 6.15 0 0 0-4.72 6 6.54 6.54 0 0 0 .14 1.24.57.57 0 0 0 .55.44h.12a.57.57 0 0 0 .44-.66A5 5 0 1 1 35 21a5.67 5.67 0 0 1-.1 1 .56.56 0 0 0 .43.67.57.57 0 0 0 .67-.44 6.43 6.43 0 0 0 .14-1.23 6.15 6.15 0 0 0-4.72-6zm-1.65-.17l-2.11-3.77h4.68l-2.11 3.77z" fill="#78dda3"/><path class="cls-4" d="M11.49 23.86H10v-1.51a.56.56 0 1 0-1.12 0v1.51H7.35a.56.56 0 0 0 0 1.12h1.51v1.51a.56.56 0 0 0 1.12 0V25h1.51a.56.56 0 0 0 0-1.12z" fill="#78dda3"/><path class="cls-4" d="M37.44 49.1h-1.51v-1.5a.56.56 0 1 0-1.12 0v1.5H33.3a.57.57 0 0 0-.56.57.56.56 0 0 0 .56.56h1.51v1.51a.56.56 0 1 0 1.12 0v-1.51h1.51a.56.56 0 0 0 .56-.56.57.57 0 0 0-.56-.57z" fill="#78dda3"/><path class="cls-4" d="M15.45 47.84a2.21 2.21 0 1 1 2.21-2.21 2.21 2.21 0 0 1-2.21 2.21zm0-3.29a1.09 1.09 0 1 0 1.09 1.08 1.09 1.09 0 0 0-1.09-1.08z" fill="#78dda3"/><path class="cls-4" d="M45.8 47.84a2.21 2.21 0 1 1 2.2-2.21 2.21 2.21 0 0 1-2.2 2.21zm0-3.29a1.09 1.09 0 1 0 1.08 1.08 1.09 1.09 0 0 0-1.08-1.08z" fill="#78dda3"/><path class="cls-4" d="M30 8.45a.57.57 0 0 1-.56-.57V.56a.56.56 0 0 1 1.12 0v7.32a.57.57 0 0 1-.56.57z" fill="#78dda3"/><circle class="cls-4" cx="8.59" cy="37.06" r=".83" fill="#78dda3"/><circle class="cls-4" cx="50.25" cy="40.56" r=".83" fill="#78dda3"/><circle class="cls-4" cx="25.59" cy="50.5" r=".83" fill="#78dda3"/><path class="cls-4" d="M50.6 24.64a.58.58 0 0 1-.4-.17l-1.72-1.72a.56.56 0 0 1 0-.8l1.72-1.72a.57.57 0 0 1 .8 0L52.73 22a.58.58 0 0 1 0 .8L51 24.47a.56.56 0 0 1-.4.17zm-.93-2.29l.93.93.93-.93-.93-.93z" fill="#78dda3"/><path class="cls-4" d="M49 14.39a.55.55 0 0 1-.35-.12.56.56 0 0 1-.09-.79l3.19-4a.57.57 0 0 1 .79-.09.56.56 0 0 1 .08.79l-3.18 4a.56.56 0 0 1-.44.21z" fill="#78dda3"/><path class="cls-4" d="M40.9 24.54a.56.56 0 0 1-.44-.91l6.54-8.2a.57.57 0 0 1 .79-.09.58.58 0 0 1 .09.8l-6.55 8.19a.55.55 0 0 1-.43.21z" fill="#78dda3"/><path class="cls-4" d="M11 14.39a.55.55 0 0 1-.44-.21l-3.19-4a.55.55 0 0 1 .09-.79.57.57 0 0 1 .79.09l3.18 4a.56.56 0 0 1-.08.79.59.59 0 0 1-.35.12z" fill="#78dda3"/><path class="cls-4" d="M18.53 23.8a.56.56 0 0 1-.44-.21l-5.95-7.45a.56.56 0 1 1 .87-.71l6 7.46a.56.56 0 0 1-.44.91z" fill="#78dda3"/><g class="cls-5" clip-path="url(#clip-path)"><path class="cls-4" d="M22.14 14.44a.55.55 0 0 1-.52-.34l-3.54-8.22a.57.57 0 0 1 .29-.74.56.56 0 0 1 .74.3l3.55 8.22a.55.55 0 0 1-.52.78z" fill="#78dda3"/><path class="cls-4" d="M38 14.44a.62.62 0 0 1-.23 0 .57.57 0 0 1-.29-.74L41 5.44a.56.56 0 0 1 1 .44l-3.54 8.22a.54.54 0 0 1-.46.34z" fill="#78dda3"/></g><path class="cls-4" d="M45.69 32.75h-.13a.56.56 0 0 1-.41-.68 3.11 3.11 0 0 0-2.29-3.74.56.56 0 0 1 .26-1.09 4.22 4.22 0 0 1 3.12 5.1.57.57 0 0 1-.55.41z" fill="#78dda3"/><path class="cls-3" d="M33.5 29.25c0-.11 0-.23-.08-.34v-.13a6.27 6.27 0 0 0-7.57-4.62A4.91 4.91 0 0 0 22 27.81a5.1 5.1 0 0 0-5-1.53 6.28 6.28 0 0 0-4.62 7.57v.14c0 .11.05.22.07.3.78 3.21 5.62 7.73 13.36 10.16H26a.36.36 0 0 0 .27-.11c5.73-5.68 8-11.91 7.23-15.09z" fill="#fff"/><path class="cls-4" d="M15.16 33.75a.57.57 0 0 1-.55-.43 4.22 4.22 0 0 1 3.12-5.1.56.56 0 0 1 .27 1.09 3.11 3.11 0 0 0-2.29 3.74.56.56 0 0 1-.41.68z" fill="#78dda3"/></g></symbol><symbol id="icon-Other" viewBox="0 0 60 60"><g class="nc-icon-wrapper"><title>Other</title><circle class="cls-1" cx="30" cy="30.03" r="27" fill="#00b964"/><path class="cls-2" d="M11.9 34.42h-1.5v-1.51a.57.57 0 0 0-.57-.56.56.56 0 0 0-.56.56v1.51H7.76a.56.56 0 0 0 0 1.12h1.51v1.51a.56.56 0 0 0 .56.56.57.57 0 0 0 .57-.56v-1.51h1.5a.56.56 0 1 0 0-1.12z" fill="#78dda3"/><circle class="cls-2" cx="44.37" cy="40.8" r=".83" fill="#78dda3"/><circle class="cls-2" cx="18.41" cy="49.15" r=".83" fill="#78dda3"/><path class="cls-2" d="M15.66 44.21A2.21 2.21 0 1 1 17.87 42a2.21 2.21 0 0 1-2.21 2.21zm0-3.29A1.08 1.08 0 1 0 16.74 42a1.08 1.08 0 0 0-1.08-1.08z" fill="#78dda3"/><path class="cls-2" d="M50.25 38.39a2.21 2.21 0 1 1 2.2-2.2 2.21 2.21 0 0 1-2.2 2.2zm0-3.28a1.08 1.08 0 1 0 1.08 1.08 1.08 1.08 0 0 0-1.08-1.08z" fill="#78dda3"/><path class="cls-3" d="M42.3 28a12.3 12.3 0 1 0-20.66 9c1.38 1.27 2.09 2.11 2.09 4v-.41c0 .89.5 1.39 1.12 1.39h10.3a1.12 1.12 0 0 0 1.12-1.12V41c0-1.92.8-2.75 2.19-4.07A12.21 12.21 0 0 0 42.3 28z" fill="#fff"/><path class="cls-2" d="M39.3 28.6a.57.57 0 0 1-.57-.56 8.6 8.6 0 0 0-.25-2.04.56.56 0 0 1 .41-.68.56.56 0 0 1 .68.41 9.84 9.84 0 0 1 .29 2.27.56.56 0 0 1-.56.6z" fill="#78dda3"/><path class="cls-2" d="M38.05 24a.58.58 0 0 1-.49-.28A8.76 8.76 0 0 0 34 20.26a.57.57 0 0 1-.24-.76.56.56 0 0 1 .76-.25 9.93 9.93 0 0 1 4.06 3.86.57.57 0 0 1-.21.77.55.55 0 0 1-.32.12z" fill="#78dda3"/><path class="cls-2" d="M30 13.3a.56.56 0 0 1-.56-.56V8.33a.56.56 0 1 1 1.12 0v4.41a.56.56 0 0 1-.56.56z" fill="#78dda3"/><path class="cls-2" d="M30 6.59a.56.56 0 0 1-.56-.59V1a.56.56 0 0 1 1.12 0v5a.56.56 0 0 1-.56.59z" fill="#78dda3"/><path class="cls-2" d="M21.71 15.79a.55.55 0 0 1-.48-.28L14.72 4.23a.56.56 0 0 1 .2-.77.57.57 0 0 1 .77.21l6.51 11.27a.57.57 0 0 1-.49.85z" fill="#78dda3"/><path class="cls-2" d="M14.58 29.61H.65a.56.56 0 1 1 0-1.12h13.93a.56.56 0 0 1 0 1.12z" fill="#78dda3"/><path class="cls-2" d="M16.17 22.16a.6.6 0 0 1-.28-.08l-3.18-1.84a.56.56 0 1 1 .56-1l3.18 1.84a.56.56 0 0 1-.28 1.05z" fill="#78dda3"/><path class="cls-2" d="M10.71 19a.6.6 0 0 1-.28-.08L4 15.2a.56.56 0 0 1 .56-1L11 18a.56.56 0 0 1-.29 1z" fill="#78dda3"/><path class="cls-2" d="M38.29 15.79a.57.57 0 0 1-.49-.85l6.51-11.27a.57.57 0 0 1 .77-.21.56.56 0 0 1 .2.77l-6.51 11.28a.55.55 0 0 1-.48.28z" fill="#78dda3"/><path class="cls-2" d="M59.35 29.61H45.42a.56.56 0 0 1 0-1.12h13.93a.56.56 0 1 1 0 1.12z" fill="#78dda3"/><path class="cls-2" d="M43.83 22.16a.55.55 0 0 1-.49-.28.57.57 0 0 1 .21-.77l3.18-1.84a.56.56 0 1 1 .56 1l-3.18 1.84a.6.6 0 0 1-.28.05z" fill="#78dda3"/><path class="cls-2" d="M49.29 19a.58.58 0 0 1-.49-.28.57.57 0 0 1 .2-.72l6.47-3.74a.56.56 0 0 1 .56 1l-6.47 3.73a.57.57 0 0 1-.27.01z" fill="#78dda3"/><path class="cls-2" d="M43.5 49.87a.59.59 0 0 1-.4-.16L41.38 48a.54.54 0 0 1-.17-.4.52.52 0 0 1 .17-.39l1.72-1.73a.57.57 0 0 1 .8 0l1.72 1.73a.56.56 0 0 1 0 .79l-1.72 1.71a.59.59 0 0 1-.4.16zm-.93-2.29l.93.93.93-.93-.93-.93z" fill="#78dda3"/><path class="cls-2" d="M36.11 41.52h-2.86V31a.56.56 0 0 0-.56-.56.57.57 0 0 0-.57.56v10.52h-4.24V31a.57.57 0 0 0-.57-.56.56.56 0 0 0-.56.56v10.52h-3a1.52 1.52 0 0 0-1.5 1.48v1.35a1.52 1.52 0 0 0 1.51 1.52h.55v1.73a1.52 1.52 0 0 0 1.44 1.51v.39a2.88 2.88 0 0 0 2.87 2.87h2.64a2.87 2.87 0 0 0 2.86-2.87v-.38h.05a1.52 1.52 0 0 0 1.52-1.52v-1.32-.38h.43a1.52 1.52 0 0 0 1.52-1.52V43a1.52 1.52 0 0 0-1.53-1.48zm-4.85 9.75h-2.64a1.74 1.74 0 0 1-1.74-1.74.38.38 0 0 1 .38-.38h5.35a.39.39 0 0 1 .39.38 1.74 1.74 0 0 1-1.74 1.74zm3.3-3.64a.38.38 0 0 1-.39.39h-8.34a.38.38 0 0 1-.39-.39v-1.35a.38.38 0 0 1 .39-.38h8.34a.38.38 0 0 1 .39.38zm1.94-3.25a.38.38 0 0 1-.39.39H23.76a.39.39 0 0 1-.39-.39V43a.39.39 0 0 1 .39-.38h12.35a.38.38 0 0 1 .39.38z" fill="#78dda3"/></g></symbol><symbol id="icon-Sports" viewBox="0 0 60 60"><g class="nc-icon-wrapper"><defs><clipPath id="clip-path"><circle class="cls-1" cx="29.97" cy="30.05" r="13.39" fill="none"/></clipPath><clipPath id="clip-path-2"><circle class="cls-1" cx="30" cy="30.03" r="27" fill="none"/></clipPath></defs><title>Sports</title><circle class="cls-2" cx="30" cy="30.03" r="27" fill="#00b964"/><path class="cls-3" d="M13.79 20a6.86 6.86 0 0 1-1.35-.13A7 7 0 0 1 15.1 6.2a7 7 0 0 1 5.52 8.18A7 7 0 0 1 13.79 20zm0-12.83a5.87 5.87 0 1 0 1.13.11 5.41 5.41 0 0 0-1.16-.08z" fill="#78dda3"/><circle class="cls-1" cx="13.78" cy="13.07" r="6.43" fill="none"/><path class="cls-3" d="M27.6 50l1.07-1.07a.56.56 0 0 0 0-.79.57.57 0 0 0-.8 0l-1.06 1.06-1.07-1.06a.57.57 0 0 0-.8 0 .57.57 0 0 0 0 .79L26 50l-1.07 1.07a.57.57 0 0 0 .4 1 .56.56 0 0 0 .4-.17l1.07-1.06 1.06 1.06a.56.56 0 0 0 .8 0 .56.56 0 0 0 0-.79z" fill="#78dda3"/><circle class="cls-3" cx="49.28" cy="37.71" r=".95" fill="#78dda3"/><circle class="cls-3" cx="25.94" cy="10.5" r=".95" fill="#78dda3"/><path class="cls-3" d="M33.17 11.1a2.21 2.21 0 1 1 2.21-2.21 2.21 2.21 0 0 1-2.21 2.21zm0-3.29a1.08 1.08 0 1 0 1.08 1.08 1.08 1.08 0 0 0-1.08-1.08z" fill="#78dda3"/><path class="cls-3" d="M53.78 48.66c-.15-.2-3.32-4.31-7.64-5.49v-.39a.56.56 0 0 0-1.12 0v.15a5.67 5.67 0 0 0-.58 0v-.1a.56.56 0 0 0-.56-.56.57.57 0 0 0-.57.56v.1a5.48 5.48 0 0 0-.57 0v-.15a.57.57 0 0 0-.57-.56.56.56 0 0 0-.56.56v.39c-4.32 1.18-7.49 5.29-7.64 5.49a.57.57 0 0 0 0 .68c.18.24 4.47 5.82 9.91 5.82s9.72-5.58 9.9-5.82a.54.54 0 0 0 0-.68zm-12.17-4.33v.05a.56.56 0 0 0 .56.56.57.57 0 0 0 .57-.56v-.31l.57-.07v.38a.57.57 0 0 0 .57.56.56.56 0 0 0 .56-.56V44l.58.07v.31a.56.56 0 0 0 1.12 0v-.05a15 15 0 0 1 6 4.11h-16.5a15.09 15.09 0 0 1 5.97-4.11zM43.88 54c-3.63 0-6.82-2.94-8.24-4.47h16.47C50.7 51.09 47.51 54 43.88 54z" fill="#78dda3"/><g class="cls-4" clip-path="url(#clip-path)"><circle class="cls-5" cx="29.97" cy="30.05" r="13.39" fill="#fff"/><path class="cls-3" d="M48.93 32.19l-5.14-3.74a.56.56 0 0 0-.67 0L38.24 32l-2.65-1.17-1.78-5.5 1.7-1.85h6.12a.57.57 0 0 0 .54-.39l2-6a.55.55 0 0 0-.2-.63l-5.15-3.74a.57.57 0 0 0-.66 0L33 16.4a.55.55 0 0 0-.2.63l1.86 5.74-1.71 1.85h-5.86l-1.4-1.93 1.88-5.78a.55.55 0 0 0-.2-.63l-5.15-3.74a.57.57 0 0 0-.66 0l-5.15 3.74a.55.55 0 0 0-.2.63l2 6.05a.56.56 0 0 0 .54.39h6.07l1.4 1.93-1.79 5.53-2.5 1L17 28.25a.57.57 0 0 0-.66 0L11.18 32a.54.54 0 0 0-.2.62l2 6.06a.57.57 0 0 0 .54.39h6.36a.57.57 0 0 0 .54-.39l1.88-5.81 2.5-1 4.67 3.39v3l-4.92 3.57a.58.58 0 0 0-.21.63l2 6.06a.56.56 0 0 0 .54.38h6.36a.57.57 0 0 0 .54-.38l2-6.06a.55.55 0 0 0-.2-.63l-4.92-3.57v-3l4.66-3.38 2.64 1.17 1.89 5.82a.56.56 0 0 0 .53.39h6.37a.56.56 0 0 0 .53-.39l2-6.06a.56.56 0 0 0-.35-.62zM38.45 13.81l4.49 3.26-1.72 5.27h-5.54L34 17.07zM17.4 17l4.49-3.26L26.38 17l-1.72 5.28h-5.54zm2 21h-5.51l-1.72-5.27 4.49-3.27 4.49 3.27zm13.33 9.83h-5.52l-1.71-5.34 4.5-3.26 4.49 3.26zM30 34.28L25.5 31l1.71-5.28h5.55L34.48 31zm16.24 3.85h-5.56L39 32.86l4.49-3.26 4.48 3.26z" fill="#78dda3"/></g><g class="cls-6" clip-path="url(#clip-path-2)"><path class="cls-3" d="M16.51 53.9a.6.6 0 0 1-.28-.08.57.57 0 0 1-.21-.77l2.3-4a.57.57 0 0 1 .77-.21.56.56 0 0 1 .2.77l-2.29 4a.57.57 0 0 1-.49.29z" fill="#78dda3"/><path class="cls-3" d="M20.08 47.72a.57.57 0 0 1-.28-.08.56.56 0 0 1-.21-.76L21 44.44a.57.57 0 0 1 .77-.21.56.56 0 0 1 .23.77l-1.4 2.44a.58.58 0 0 1-.52.28z" fill="#78dda3"/><path class="cls-3" d="M4.55 45.22a.55.55 0 0 1-.49-.28.56.56 0 0 1 .2-.77l10.17-5.87a.56.56 0 1 1 .56 1L4.83 45.14a.6.6 0 0 1-.28.08z" fill="#78dda3"/><path class="cls-3" d="M13.78 30.56H8.07a.56.56 0 0 1 0-1.12h5.71a.56.56 0 1 1 0 1.12z" fill="#78dda3"/><path class="cls-3" d="M5.57 30.56H.64a.56.56 0 1 1 0-1.12h4.93a.56.56 0 1 1 0 1.12z" fill="#78dda3"/><path class="cls-3" d="M41.19 11.2a.58.58 0 0 1-.28-.07.56.56 0 0 1-.2-.77l2.29-4a.56.56 0 0 1 .77-.2A.57.57 0 0 1 44 7l-2.3 4a.55.55 0 0 1-.51.2z" fill="#78dda3"/><path class="cls-3" d="M38.51 15.84a.58.58 0 0 1-.28-.07A.56.56 0 0 1 38 15l1.4-2.44a.56.56 0 0 1 .77-.2.57.57 0 0 1 .21.77L39 15.56a.55.55 0 0 1-.49.28z" fill="#78dda3"/><path class="cls-3" d="M45.29 21.78a.56.56 0 0 1-.29-1.05l10.16-5.87a.56.56 0 0 1 .77.2.56.56 0 0 1-.2.77L45.57 21.7a.6.6 0 0 1-.28.08z" fill="#78dda3"/><path class="cls-3" d="M51.93 30.56h-5.71a.56.56 0 1 1 0-1.12h5.71a.56.56 0 1 1 0 1.12z" fill="#78dda3"/><path class="cls-3" d="M59.36 30.56h-4.93a.56.56 0 1 1 0-1.12h4.93a.56.56 0 1 1 0 1.12z" fill="#78dda3"/></g><path class="cls-3" d="M13.78 6.08a7 7 0 1 0 7 7 7 7 0 0 0-7-7zM18 17.19a.66.66 0 0 0-1.27.25.64.64 0 0 0 .27.56 5.85 5.85 0 0 1-6.42 0 .65.65 0 0 0-.36-1.19.64.64 0 0 0-.6.4A5.84 5.84 0 0 1 9.6 9a.65.65 0 0 0 .57.36.66.66 0 0 0 .66-.66.65.65 0 0 0-.25-.51 5.81 5.81 0 0 1 6.4 0 .63.63 0 0 0-.26.51.66.66 0 0 0 .65.66A.67.67 0 0 0 18 9a5.85 5.85 0 0 1 0 8.24z" fill="#78dda3"/><path class="cls-3" d="M16.76 9.76a.65.65 0 0 0-.65.65.66.66 0 0 0 .65.66.67.67 0 0 0 .66-.66.66.66 0 0 0-.66-.65z" fill="#78dda3"/><circle class="cls-3" cx="16.5" cy="12.18" r=".66" fill="#78dda3"/><circle class="cls-3" cx="16.5" cy="14" r=".66" fill="#78dda3"/><circle class="cls-3" cx="16.76" cy="15.74" r=".66" fill="#78dda3"/><path class="cls-3" d="M10.78 11.07a.66.66 0 0 0 .66-.66.66.66 0 1 0-.66.66z" fill="#78dda3"/><circle class="cls-3" cx="11.05" cy="12.18" r=".66" fill="#78dda3"/><circle class="cls-3" cx="11.05" cy="14" r=".66" fill="#78dda3"/><circle class="cls-3" cx="10.79" cy="15.74" r=".66" fill="#78dda3"/></g></symbol><symbol id="icon-Travel" viewBox="0 0 60 60"><g class="nc-icon-wrapper"><defs><clipPath id="clip-path"><circle class="cls-1" cx="30" cy="30.03" r="27" fill="none"/></clipPath></defs><title>Travel</title><circle class="cls-2" cx="30" cy="30.03" r="27" fill="#00b964"/><path class="cls-3" d="M58.83 33.22H40.25a.57.57 0 0 1-.56-.57.56.56 0 0 1 .56-.56h18c-.28-2.86-2.71-3.9-5-3.9a7.15 7.15 0 0 0-1.91.25.56.56 0 0 1-.59-.2 5.07 5.07 0 0 0-4-1.93c-1.6 0-2.64.89-3.6 3.06a.56.56 0 0 1-.38.32.58.58 0 0 1-.49-.11 5 5 0 0 0-2.19-.67.57.57 0 0 1-.5-.62.58.58 0 0 1 .62-.5 7.32 7.32 0 0 1 2.17.56c.78-1.58 2-3.16 4.37-3.16a6.16 6.16 0 0 1 4.63 2.08 8.13 8.13 0 0 1 1.85-.2c3.73 0 6.14 2.19 6.14 5.58a.57.57 0 0 1-.54.57z" fill="#78dda3"/><path class="cls-3" d="M34.57 15.94H13a.56.56 0 0 1-.56-.57c0-3.2 2.28-5.28 5.8-5.28a8.24 8.24 0 0 1 1.72.19 5.84 5.84 0 0 1 4.36-1.95c2.22 0 3.38 1.48 4.12 3a7.16 7.16 0 0 1 2.6-.54c1.87 0 4.1.8 4.1 4.62a.56.56 0 0 1-.57.53zm-21-1.13H34c-.19-2.62-1.75-2.94-2.95-2.94a5.17 5.17 0 0 0-2.51.65.52.52 0 0 1-.48.1.57.57 0 0 1-.38-.31c-.89-2-1.86-2.85-3.35-2.85a4.69 4.69 0 0 0-3.71 1.8.57.57 0 0 1-.59.19 7 7 0 0 0-1.78-.23c-2.14 0-4.39.96-4.67 3.59z" fill="#78dda3"/><circle class="cls-3" cx="37.03" cy="48.75" r=".83" fill="#78dda3"/><circle class="cls-3" cx="49.33" cy="19.59" r=".83" fill="#78dda3"/><path class="cls-4" d="M37.89 38.1l.84-.84a1.22 1.22 0 0 0 .35-1L38 25.47a1.22 1.22 0 0 1 .35-1l3.42-3.42c2.29-2.29 1.9-4.15 1.56-4.94a1.18 1.18 0 0 0-.63-.63c-.79-.34-2.66-.74-4.95 1.56l-3.42 3.42a1.21 1.21 0 0 1-1 .35l-10.82-1.12a1.21 1.21 0 0 0-1 .35l-.85.85a1.21 1.21 0 0 0 .43 2l7.12 2.74a.76.76 0 0 1 .3 1.21l-3.3 3.76a2.16 2.16 0 0 1-1.78.73l-3.73-.27a1.25 1.25 0 0 0-.95.36l-1 1a.79.79 0 0 0 .28 1.3l4.71 1.78a1.2 1.2 0 0 1 .55.54L25 40.77a.79.79 0 0 0 1.3.28l1-1a1.18 1.18 0 0 0 .35-.94l-.26-3.73a2.17 2.17 0 0 1 .73-1.79l3.75-3.3a.76.76 0 0 1 1.21.3l2.74 7.13a1.22 1.22 0 0 0 2.07.38z" fill="#fff"/><path class="cls-3" d="M36.93 35.46a.57.57 0 0 1-.56-.5l-.16-1.55a.56.56 0 0 1 1.12-.12l.16 1.55a.57.57 0 0 1-.5.62z" fill="#78dda3"/><path class="cls-3" d="M36.53 31.62a.56.56 0 0 1-.56-.51l-.46-4.38a.56.56 0 0 1 1.12-.12l.46 4.39a.57.57 0 0 1-.5.62z" fill="#78dda3"/><path class="cls-3" d="M8.25 51.21a.52.52 0 0 1-.4-.17.56.56 0 0 1 0-.79l4-4a.56.56 0 0 1 .79.79l-4 3.96a.52.52 0 0 1-.39.21z" fill="#78dda3"/><path class="cls-3" d="M14 45.46a.57.57 0 0 1-.4-.16.59.59 0 0 1 0-.8l7.46-7.45a.56.56 0 0 1 .79.79l-7.46 7.46a.55.55 0 0 1-.39.16z" fill="#78dda3"/><path class="cls-3" d="M2.06 41.45a.55.55 0 0 1-.4-.16.57.57 0 0 1 0-.8l9.83-9.83a.57.57 0 0 1 .8 0 .56.56 0 0 1 0 .79l-9.84 9.84a.54.54 0 0 1-.39.16z" fill="#78dda3"/><path class="cls-3" d="M14 29.55a.57.57 0 0 1-.4-1l5.25-5.25a.57.57 0 0 1 .8 0 .56.56 0 0 1 0 .79l-5.25 5.25a.58.58 0 0 1-.4.21z" fill="#78dda3"/><path class="cls-3" d="M17.5 57.84a.57.57 0 0 1-.4-1l10.31-10.27a.56.56 0 0 1 .79 0 .57.57 0 0 1 0 .8l-10.3 10.3a.58.58 0 0 1-.4.17z" fill="#78dda3"/><path class="cls-3" d="M29.87 45.46a.53.53 0 0 1-.39-.16.57.57 0 0 1 0-.8l5.25-5.25a.56.56 0 0 1 .79 0 .57.57 0 0 1 0 .8l-5.25 5.25a.55.55 0 0 1-.4.16z" fill="#78dda3"/><g class="cls-5" clip-path="url(#clip-path)"><path class="cls-3" d="M14 53.44a.57.57 0 0 1-.4-1l10.02-10.02a.56.56 0 0 1 .79 0 .57.57 0 0 1 0 .8l-10 10.05a.58.58 0 0 1-.41.17z" fill="#78dda3"/><path class="cls-3" d="M6 45.46a.54.54 0 0 1-.39-.16.57.57 0 0 1 0-.8l10.05-10a.57.57 0 0 1 .8 0 .56.56 0 0 1 0 .79L6.38 45.3a.55.55 0 0 1-.38.16z" fill="#78dda3"/></g><path class="cls-3" d="M45.86 44.64a2.21 2.21 0 1 1 2.21-2.21 2.21 2.21 0 0 1-2.21 2.21zm0-3.29a1.08 1.08 0 0 0 0 2.16 1.08 1.08 0 0 0 0-2.16z" fill="#78dda3"/><path class="cls-3" d="M14 21.1h-1.55v-1.51a.56.56 0 0 0-1.12 0v1.51H9.82a.57.57 0 0 0 0 1.13h1.51v1.5a.56.56 0 1 0 1.12 0v-1.5H14a.57.57 0 0 0 0-1.13z" fill="#78dda3"/></g></symbol><symbol id="icon-Volunteer" viewBox="0 0 60 60"><g class="nc-icon-wrapper"><defs><clipPath id="clip-path"><circle class="cls-1" cx="30" cy="30.03" r="27" fill="none"/></clipPath></defs><title>Volunteer</title><g class="cls-2" clip-path="url(#clip-path)"><circle class="cls-3" cx="30" cy="30.03" r="27" fill="#00b964"/><path class="cls-4" d="M39.26 45.83a.56.56 0 0 0-.56.56v3.44h-13v-3.44a.57.57 0 0 0-.57-.56.56.56 0 0 0-.56.56v11.9a.56.56 0 0 0 .56.56h14.13a.56.56 0 0 0 .57-.56v-11.9a.56.56 0 0 0-.57-.56zm-13.6 11.9V51h13v6.77z" fill="#78dda3"/></g><path class="cls-4" d="M43.7 49.39a2.21 2.21 0 1 1 2.2-2.2 2.21 2.21 0 0 1-2.2 2.2zm0-3.29a1.09 1.09 0 1 0 1.08 1.09 1.09 1.09 0 0 0-1.08-1.09z" fill="#78dda3"/><circle class="cls-4" cx="46.66" cy="40.82" r=".83" fill="#78dda3"/><circle class="cls-4" cx="45.82" cy="17.65" r=".83" fill="#78dda3"/><circle class="cls-4" cx="25.67" cy="9.43" r=".83" fill="#78dda3"/><circle class="cls-4" cx="16.67" cy="20.09" r=".83" fill="#78dda3"/><circle class="cls-4" cx="18.95" cy="50.23" r=".83" fill="#78dda3"/><circle class="cls-4" cx="12.73" cy="45.54" r=".83" fill="#78dda3"/><path class="cls-4" d="M18.31 15.47a2.21 2.21 0 1 1 2.2-2.2 2.21 2.21 0 0 1-2.2 2.2zm0-3.29a1.09 1.09 0 1 0 1.08 1.09 1.08 1.08 0 0 0-1.08-1.09z" fill="#78dda3"/><path class="cls-4" d="M42.7 26.86a.57.57 0 0 1-.53-.38.56.56 0 0 1 .34-.72l7.92-2.84a.57.57 0 0 1 .72.34.56.56 0 0 1-.34.72l-7.92 2.84a.46.46 0 0 1-.19.04z" fill="#78dda3"/><path class="cls-4" d="M50.62 37.94a.58.58 0 0 1-.19 0l-7.92-2.84a.55.55 0 0 1-.34-.72.57.57 0 0 1 .72-.34l7.92 2.84a.57.57 0 0 1-.19 1.1z" fill="#78dda3"/><path class="cls-4" d="M59.44 30.82h-9.25a.58.58 0 0 1-.57-.57.57.57 0 0 1 .57-.56h9.25a.56.56 0 0 1 .56.56.57.57 0 0 1-.56.57z" fill="#78dda3"/><path class="cls-4" d="M47.87 30.82H42.7a.58.58 0 0 1-.57-.57.57.57 0 0 1 .57-.56h5.17a.57.57 0 0 1 .57.56.58.58 0 0 1-.57.57z" fill="#78dda3"/><path class="cls-4" d="M17.43 26.86a.41.41 0 0 1-.19 0L9.32 24a.55.55 0 0 1-.32-.74.57.57 0 0 1 .72-.34l7.92 2.84a.57.57 0 0 1-.19 1.1z" fill="#78dda3"/><path class="cls-4" d="M9.51 37.94a.57.57 0 0 1-.51-.38.56.56 0 0 1 .34-.72l7.9-2.84a.57.57 0 0 1 .72.34.56.56 0 0 1-.34.72L9.7 37.9a.72.72 0 0 1-.19.04z" fill="#78dda3"/><path class="cls-4" d="M9.94 30.82H.56a.57.57 0 0 1-.56-.57.56.56 0 0 1 .56-.56h9.38a.56.56 0 0 1 .56.56.57.57 0 0 1-.56.57z" fill="#78dda3"/><path class="cls-4" d="M17.43 30.82h-5.18a.57.57 0 0 1-.56-.57.56.56 0 0 1 .56-.56h5.18a.56.56 0 0 1 .56.56.57.57 0 0 1-.56.57z" fill="#78dda3"/><path class="cls-4" d="M39.08 10.75l1.06-1.06a.57.57 0 0 0 0-.8.56.56 0 0 0-.79 0L38.28 10l-1.06-1.11a.57.57 0 1 0-.8.8l1.07 1.06-1.07 1.07a.56.56 0 0 0 0 .79.56.56 0 0 0 .8 0l1.06-1.06 1.07 1.06a.56.56 0 0 0 .4.17.54.54 0 0 0 .39-.17.56.56 0 0 0 0-.79z" fill="#78dda3"/><path class="cls-4" d="M19.67 44.67a2.21 2.21 0 1 1 2.21-2.2 2.2 2.2 0 0 1-2.21 2.2zm0-3.28a1.08 1.08 0 1 0 1.08 1.08 1.08 1.08 0 0 0-1.08-1.08z" fill="#78dda3"/><path class="cls-3" d="M33.62 37.42H24.3a.51.51 0 0 1-.5-.5V24.35a.5.5 0 0 1 .5-.5h9.32a.5.5 0 0 1 .5.5v12.57a.5.5 0 0 1-.5.5zm-8.82-1h8.32V24.85H24.8z" fill="#00b964"/><path class="cls-5" d="M25.12 44.43h14.11a.6.6 0 0 0 .6-.6V20.58a1.51 1.51 0 1 0-3 0v8.82a.5.5 0 0 1-1 0V18a1.51 1.51 0 0 0-3 0v11.4a.5.5 0 0 1-.5.5.5.5 0 0 1-.5-.5v-14a1.5 1.5 0 0 0-3 0v14a.5.5 0 0 1-.5.5.5.5 0 0 1-.5-.5V18a1.51 1.51 0 0 0-3 0v12.49c0 .22.21.39.7.71a3.18 3.18 0 0 1 1.7 2.8.5.5 0 0 1-.5.5.5.5 0 0 1-.5-.5 2.22 2.22 0 0 0-1.29-2c-.54-.36-1.14-.77-1.14-1.54v-2.1a3 3 0 0 0-2.52-3.13 1.34 1.34 0 0 0-1 .35.33.33 0 0 0-.07.28 33.39 33.39 0 0 1 .74 7.85 5 5 0 0 0 1.62 3.23 5.7 5.7 0 0 1 2 4.36v2.53a.6.6 0 0 0 .55.6z" fill="#fff"/><path class="cls-4" d="M36.73 33.44a.63.63 0 0 1-.19 0 11.67 11.67 0 0 0-6.79-.33.57.57 0 0 1-.7-.39.55.55 0 0 1 .39-.69 12.72 12.72 0 0 1 7.47.35.56.56 0 0 1-.18 1.09z" fill="#78dda3"/></g></symbol><symbol id="icon-Wishes" viewBox="0 0 60 60"><g class="nc-icon-wrapper"><defs><clipPath id="clip-path"><circle class="cls-1" cx="30" cy="30.03" r="27" fill="none"/></clipPath></defs><title>Wishes</title><g class="cls-2" clip-path="url(#clip-path)"><circle class="cls-3" cx="30" cy="30.03" r="27" fill="#00b964"/><path class="cls-4" d="M60.38 37.39H42.49a.56.56 0 0 1-.56-.56c0-3.31 1.89-4.48 3.5-4.48a3.5 3.5 0 0 1 1.68.43 5 5 0 0 1 7.54-.29 7.12 7.12 0 0 1 1.35-.14c3 0 4.91 1.76 4.91 4.48a.57.57 0 0 1-.53.56zm-17.3-1.13h16.7c-.27-2-2.06-2.78-3.74-2.78a5.88 5.88 0 0 0-1.45.18.55.55 0 0 1-.59-.19 3.82 3.82 0 0 0-6.27.38.58.58 0 0 1-.38.26.61.61 0 0 1-.45-.11 2.31 2.31 0 0 0-1.47-.51c-1.33-.01-2.2 1.04-2.35 2.77z" fill="#78dda3"/><path class="cls-5" d="M31 39.75L37.12 44a1.77 1.77 0 0 0 2.71-2l-2.15-7.1a1.75 1.75 0 0 1 .62-1.9l5.93-4.5a1.78 1.78 0 0 0-1-3.19l-7.44-.15A1.77 1.77 0 0 1 34.12 24l-2.44-7a1.78 1.78 0 0 0-3.36 0l-2.44 7a1.77 1.77 0 0 1-1.64 1.19l-7.44.15a1.78 1.78 0 0 0-1 3.19L21.7 33a1.75 1.75 0 0 1 .62 1.92L20.17 42a1.77 1.77 0 0 0 2.71 2L29 39.75a1.74 1.74 0 0 1 2 0z" fill="#fff"/><path class="cls-4" d="M30 48a.57.57 0 0 1-.56-.57v-3.8a.56.56 0 1 1 1.12 0v3.78A.57.57 0 0 1 30 48z" fill="#78dda3"/><path class="cls-4" d="M16.45 54h-.17a.57.57 0 0 1-.37-.71l.77-2.5a.57.57 0 1 1 1.08.34L17 53.62a.55.55 0 0 1-.55.38z" fill="#78dda3"/><path class="cls-4" d="M23.13 56.71h-.06a.56.56 0 0 1-.5-.62l1-9.59a.56.56 0 1 1 1.12.12l-1 9.59a.57.57 0 0 1-.56.5z" fill="#78dda3"/><path class="cls-4" d="M46 16.14h-1.53v-1.51a.56.56 0 0 0-.56-.56.57.57 0 0 0-.57.56v1.51h-1.5a.56.56 0 1 0 0 1.12h1.5v1.51a.57.57 0 0 0 .57.56.56.56 0 0 0 .56-.56v-1.51H46a.56.56 0 0 0 0-1.12z" fill="#78dda3"/><path class="cls-4" d="M13.25 39.21l1.06-1.07a.57.57 0 0 0 0-.8.56.56 0 0 0-.79 0l-1.07 1.07-1.07-1.07a.56.56 0 0 0-.79 0 .57.57 0 0 0 0 .8l1.06 1.07-1.06 1.06a.57.57 0 0 0 0 .8.55.55 0 0 0 .4.16.54.54 0 0 0 .39-.16L12.45 40l1.07 1.07a.54.54 0 0 0 .39.16.55.55 0 0 0 .4-.16.57.57 0 0 0 0-.8z" fill="#78dda3"/><circle class="cls-4" cx="35.42" cy="10.62" r=".83" fill="#78dda3"/><circle class="cls-4" cx="8.2" cy="29.73" r=".83" fill="#78dda3"/><circle class="cls-4" cx="48.3" cy="43.7" r=".83" fill="#78dda3"/><circle class="cls-4" cx="49.96" cy="22.75" r=".83" fill="#78dda3"/><path class="cls-4" d="M22.65 13.26a2.21 2.21 0 1 1 2.2-2.21 2.21 2.21 0 0 1-2.2 2.21zm0-3.29a1.08 1.08 0 1 0 1.08 1.08A1.09 1.09 0 0 0 22.65 10z" fill="#78dda3"/><path class="cls-4" d="M36.87 56.71a.57.57 0 0 1-.56-.51l-1-9.59a.56.56 0 1 1 1.12-.12l1 9.59a.56.56 0 0 1-.5.62z" fill="#78dda3"/></g><path class="cls-4" d="M29.84 34.72a6.36 6.36 0 0 1-6.1-4 .56.56 0 0 1 .35-.71.55.55 0 0 1 .71.35 5.18 5.18 0 0 0 5 3.2 5.23 5.23 0 0 0 5.05-3.2.55.55 0 0 1 .75-.36.56.56 0 0 1 .35.71 6.37 6.37 0 0 1-6.11 4.01z" fill="#78dda3"/><path class="cls-4" d="M19.83 22.37H1.88a.56.56 0 0 1-.56-.56c0-2.73 1.93-4.49 4.92-4.49a6.59 6.59 0 0 1 1.4.15 4.94 4.94 0 0 1 3.66-1.61 3.8 3.8 0 0 1 3.47 2.43 6.06 6.06 0 0 1 2.12-.43c2.26 0 3.51 1.41 3.51 3.95a.57.57 0 0 1-.57.56zM2.48 21.25h16.77c-.18-2-1.34-2.26-2.36-2.26a4.24 4.24 0 0 0-2 .52.56.56 0 0 1-.89-.21c-.72-1.65-1.51-2.3-2.7-2.3a3.8 3.8 0 0 0-3 1.46.58.58 0 0 1-.59.2 5.47 5.47 0 0 0-1.46-.19c-1.7-.02-3.49.73-3.77 2.78z" fill="#78dda3"/><path class="cls-4" d="M17.9 49.31a.44.44 0 0 1-.16 0 .56.56 0 0 1-.37-.71l.94-3a.56.56 0 1 1 1.07.34l-.94 3a.56.56 0 0 1-.54.37z" fill="#78dda3"/><path class="cls-4" d="M15.56 56.89a.47.47 0 0 1-.17 0 .55.55 0 0 1-.37-.7l1.66-5.38a.57.57 0 1 1 1.08.34l-1.67 5.37a.56.56 0 0 1-.53.37z" fill="#78dda3"/><path class="cls-4" d="M42.1 49.31a.56.56 0 0 1-.54-.39l-.94-3a.56.56 0 1 1 1.07-.34l.94 3a.56.56 0 0 1-.37.71.44.44 0 0 1-.16.02z" fill="#78dda3"/><path class="cls-4" d="M44.44 56.89a.56.56 0 0 1-.53-.4l-1.67-5.37a.57.57 0 1 1 1.08-.34L45 56.16a.55.55 0 0 1-.37.7.47.47 0 0 1-.19.03z" fill="#78dda3"/><path class="cls-4" d="M30 60a.56.56 0 0 1-.56-.56V50.2a.56.56 0 1 1 1.12 0v9.24A.56.56 0 0 1 30 60z" fill="#78dda3"/></g></symbol></svg>
